
<svg width="789px" height="338px" viewBox="0 0 789 338" version="1.1" xmlns="http://www.w3.org/2000/svg" xmlns:xlink="http://www.w3.org/1999/xlink">
    <g id="Page-1" stroke="none" stroke-width="1" fill="none" fill-rule="evenodd">
        <g id="001-html" transform="translate(83.000000, 46.000000)">
            <path d="M40.8438636,0 L2.58759091,0 C1.5225,0 0.659090909,0.865535714 0.659090909,2.54507143 L0.659090909,72.6785714 C0.659090909,73.1344643 1.5225,74 2.58759091,74 L55.4124091,74 C56.4775,74 57.3409091,73.1344643 57.3409091,72.6785714 L57.3409091,17.1495 C57.3409091,16.2297857 57.2183182,15.9337857 57.0021364,15.71575 L41.6637727,0.339607143 C41.4462727,0.122892857 41.151,0 40.8438636,0 Z" id="Path" fill="#E9E9E0"></path>
            <polygon id="Path" fill="#D9D7CA" points="41.5227273 0.199535714 41.5227273 15.8571429 57.1418636 15.8571429"></polygon>
            <path d="M55.4124091,74 L2.58759091,74 C1.5225,74 0.659090909,73.1344643 0.659090909,72.06675 L0.659090909,51.5357143 L57.3409091,51.5357143 L57.3409091,72.06675 C57.3409091,73.1344643 56.4775,74 55.4124091,74 Z" id="Path" fill="#EC6630"></path>
            <g id="Group" transform="translate(3.954545, 55.500000)" fill="#FFFFFF">
                <polygon id="Path" points="11.1452273 1.221 11.1452273 14.5357143 8.98209091 14.5357143 8.98209091 8.53775 3.2335 8.53775 3.2335 14.5357143 1.03477273 14.5357143 1.03477273 1.221 3.2335 1.221 3.2335 7.05642857 8.98209091 7.05642857 8.98209091 1.221 11.1452273 1.221"></polygon>
                <polygon id="Path" points="23.8683182 1.221 23.8683182 2.70232143 19.9045455 2.70232143 19.9045455 14.5357143 17.7242727 14.5357143 17.7242727 2.70232143 13.7591818 2.70232143 13.7591818 1.221"></polygon>
                <polygon id="Path" points="36.5202273 1.221 38.7189545 1.221 38.7189545 14.5357143 36.5202273 14.5357143 36.5202273 5.37557143 33.5464091 12.7821786 31.6363636 12.7821786 28.6440909 5.37557143 28.6440909 14.5357143 26.4453636 14.5357143 26.4453636 1.221 28.6440909 1.221 32.5907273 10.3269643"></polygon>
                <polygon id="Path" points="44.2513636 1.221 44.2513636 12.8918571 50.3611364 12.8918571 50.3611364 14.5357143 42.0526364 14.5357143 42.0526364 1.221"></polygon>
            </g>
            <g id="Group" transform="translate(11.863636, 21.142857)" fill="#EC6630">
                <path d="M10.8183182,0.387178571 C10.3029091,-0.1295 9.46981818,-0.1295 8.95440909,0.387178571 L1.04531818,8.31575 C0.529909091,8.83242857 0.529909091,9.66757143 1.04531818,10.18425 L8.95440909,18.1128214 C9.21145455,18.3705 9.54890909,18.5 9.88636364,18.5 C10.2238182,18.5 10.5612727,18.3705 10.8183182,18.1128214 C11.3337273,17.5961429 11.3337273,16.761 10.8183182,16.2443214 L3.84118182,9.25 L10.8183182,2.25567857 C11.3337273,1.739 11.3337273,0.903857143 10.8183182,0.387178571 Z" id="Path"></path>
                <path d="M34.5455909,8.31575 L26.6365,0.387178571 C26.1210909,-0.1295 25.288,-0.1295 24.7725909,0.387178571 C24.2571818,0.903857143 24.2571818,1.739 24.7725909,2.25567857 L31.7497273,9.25 L24.7725909,16.2443214 C24.2571818,16.761 24.2571818,17.5961429 24.7725909,18.1128214 C25.0296364,18.3705 25.3670909,18.5 25.7045455,18.5 C26.042,18.5 26.3794545,18.3705 26.6365,18.1128214 L34.5455909,10.18425 C35.061,9.66757143 35.061,8.83242857 34.5455909,8.31575 Z" id="Path"></path>
            </g>
        </g>
        <g id="002-javascript" transform="translate(9.000000, 184.000000)">
            <path d="M40.8438636,0 L2.58759091,0 C1.5225,0 0.659090909,0.865535714 0.659090909,2.54507143 L0.659090909,72.6785714 C0.659090909,73.1344643 1.5225,74 2.58759091,74 L55.4124091,74 C56.4775,74 57.3409091,73.1344643 57.3409091,72.6785714 L57.3409091,17.1495 C57.3409091,16.2297857 57.2183182,15.9337857 57.0021364,15.71575 L41.6637727,0.339607143 C41.4462727,0.122892857 41.151,0 40.8438636,0 Z" id="Path" fill="#E9E9E0"></path>
            <polygon id="Path" fill="#D9D7CA" points="41.5227273 0.199535714 41.5227273 15.8571429 57.1418636 15.8571429"></polygon>
            <path d="M55.4124091,74 L2.58759091,74 C1.5225,74 0.659090909,73.1344643 0.659090909,72.06675 L0.659090909,51.5357143 L57.3409091,51.5357143 L57.3409091,72.06675 C57.3409091,73.1344643 56.4775,74 55.4124091,74 Z" id="Path" fill="#EEAF4B"></path>
            <g id="Group" transform="translate(17.136364, 55.500000)" fill="#FFFFFF">
                <path d="M9.25495455,0.950107143 L9.25495455,11.3206786 C9.25495455,11.9470357 9.14027273,12.4742857 8.91222727,12.9011071 C8.68286364,13.3279286 8.37704545,13.6715 7.99345455,13.9305 C7.60854545,14.1895 7.16695455,14.3705357 6.66868182,14.4722857 C6.17040909,14.5740357 5.655,14.6255714 5.12772727,14.6255714 C4.86277273,14.6255714 4.553,14.5978214 4.19972727,14.5436429 C3.84645455,14.4894643 3.47868182,14.4062143 3.10036364,14.29125 C2.72204545,14.1762857 2.35822727,14.0467857 2.01022727,13.90275 C1.66090909,13.7587143 1.36695455,13.5961786 1.12704545,13.4151429 L2.04581818,11.9523214 C2.16577273,12.0355714 2.33713636,12.1241071 2.55990909,12.2139643 C2.78268182,12.3038214 3.02522727,12.3883929 3.29018182,12.4663571 C3.55381818,12.5456429 3.83063636,12.6130357 4.11931818,12.6738214 C4.408,12.7346071 4.67822727,12.7636786 4.93,12.7636786 C5.56536364,12.7636786 6.07418182,12.6394643 6.4525,12.3936786 C6.83081818,12.1478929 7.03118182,11.7276786 7.05622727,11.1383214 L7.05622727,0.948785714 L9.25495455,0.948785714 L9.25495455,0.950107143 Z" id="Path"></path>
                <path d="M20.0152727,10.8859286 C20.0152727,11.3669286 19.9164091,11.8347143 19.7173636,12.2866429 C19.5183182,12.7385714 19.2401818,13.1363214 18.879,13.4785714 C18.5178182,13.8208214 18.0735909,14.0956786 17.545,14.3005 C17.0164091,14.5053214 16.4153182,14.6070714 15.7430455,14.6070714 C15.4543636,14.6070714 15.1577727,14.5912143 14.8506364,14.5621429 C14.5435,14.5330714 14.2337273,14.4802143 13.9226364,14.4088571 C13.6102273,14.3361786 13.3123182,14.2370714 13.0302273,14.1102143 C12.7481364,13.9833571 12.5042727,13.8300714 12.2999545,13.6490357 L12.6782727,12.0950357 C12.8456818,12.1915 13.0592273,12.2853214 13.3175909,12.3751786 C13.5759545,12.4650357 13.8422273,12.5496071 14.1190455,12.6275714 C14.3945455,12.7068571 14.6713636,12.7689643 14.9481818,12.8178571 C15.2236818,12.8654286 15.4820455,12.8905357 15.7232727,12.8905357 C16.4561818,12.8905357 17.0177273,12.71875 17.4079091,12.3751786 C17.7980909,12.0316071 17.9931818,11.5228571 17.9931818,10.8489286 C17.9931818,10.4392857 17.8547727,10.0904286 17.5792727,9.80103571 C17.3024545,9.51164286 16.9570909,9.25 16.5431818,9.01478571 C16.1292727,8.77957143 15.6810909,8.54567857 15.1999545,8.31046429 C14.7188182,8.07525 14.268,7.79775 13.8488182,7.47928571 C13.4283182,7.16082143 13.079,6.78421429 12.8035,6.35078571 C12.5266818,5.91735714 12.3895909,5.37557143 12.3895909,4.72542857 C12.3895909,4.13607143 12.4976818,3.61146429 12.7138636,3.15425 C12.9300455,2.69703571 13.2213636,2.30721429 13.5878182,1.98875 C13.9542727,1.67028571 14.3813636,1.42582143 14.8677727,1.25667857 C15.3541818,1.08753571 15.8682727,1.00428571 16.4087273,1.00428571 C16.9610455,1.00428571 17.5199545,1.05582143 18.0841364,1.15757143 C18.6483182,1.25932143 19.1044091,1.42582143 19.4537273,1.65442857 C19.3812273,1.81035714 19.2968636,1.98214286 19.2019545,2.16978571 C19.1057273,2.35742857 19.0147727,2.53053571 18.9317273,2.69307143 C18.8473636,2.85560714 18.7748636,2.99171429 18.7155455,3.10007143 C18.6549091,3.20842857 18.6193182,3.26921429 18.6074545,3.28110714 C18.5349545,3.24542857 18.4545455,3.19785714 18.3635909,3.13707143 C18.2726364,3.07628571 18.1434545,3.01682143 17.9760455,2.95603571 C17.8073182,2.89525 17.5845455,2.85428571 17.3090455,2.82917857 C17.0322273,2.80407143 16.6776364,2.81067857 16.2452727,2.84767857 C16.0040455,2.87278571 15.7773182,2.94017857 15.5598182,3.05514286 C15.3423182,3.17010714 15.1498636,3.31017857 14.9824545,3.47932143 C14.8137273,3.64846429 14.6805909,3.83742857 14.5856818,4.04885714 C14.4894545,4.25896429 14.442,4.46246429 14.442,4.65407143 C14.442,5.13507143 14.5790909,5.52357143 14.8559091,5.81957143 C15.1314091,6.11557143 15.4741364,6.37325 15.8827727,6.59657143 C16.2914091,6.81989286 16.7343182,7.03660714 17.2167727,7.24671429 C17.6965909,7.45682143 18.1447727,7.7145 18.56,8.01446429 C18.9752273,8.31442857 19.3192727,8.69235714 19.5960909,9.14296429 C19.8755455,9.59489286 20.0152727,10.175 20.0152727,10.8859286 Z" id="Path"></path>
            </g>
            <g id="Group" transform="translate(10.545455, 15.857143)" fill="#EEAF4B">
                <path d="M7.25,9.25 L7.25,3.96428571 C7.25,3.23617857 7.84054545,2.64285714 8.56818182,2.64285714 C9.29713636,2.64285714 9.88636364,2.05085714 9.88636364,1.32142857 C9.88636364,0.592 9.29713636,0 8.56818182,0 C6.38790909,0 4.61363636,1.77864286 4.61363636,3.96428571 L4.61363636,9.25 C4.61363636,10.7075357 3.43122727,11.8928571 1.97727273,11.8928571 C1.24831818,11.8928571 0.659090909,12.4848571 0.659090909,13.2142857 C0.659090909,13.9437143 1.24831818,14.5357143 1.97727273,14.5357143 C3.43122727,14.5357143 4.61363636,15.7210357 4.61363636,17.1785714 L4.61363636,22.4642857 C4.61363636,24.6499286 6.38790909,26.4285714 8.56818182,26.4285714 C9.29713636,26.4285714 9.88636364,25.8365714 9.88636364,25.1071429 C9.88636364,24.3777143 9.29713636,23.7857143 8.56818182,23.7857143 C7.84054545,23.7857143 7.25,23.1923929 7.25,22.4642857 L7.25,17.1785714 C7.25,15.5928571 6.53554545,14.1842143 5.42827273,13.2142857 C6.53554545,12.2443571 7.25,10.8357143 7.25,9.25 Z" id="Path"></path>
                <ellipse id="Oval" cx="17.7954545" cy="8.58928571" rx="1.97727273" ry="1.98214286"></ellipse>
                <path d="M33.6136364,11.8928571 C32.1596818,11.8928571 30.9772727,10.7075357 30.9772727,9.25 L30.9772727,3.96428571 C30.9772727,1.77864286 29.203,0 27.0227273,0 C26.2937727,0 25.7045455,0.592 25.7045455,1.32142857 C25.7045455,2.05085714 26.2937727,2.64285714 27.0227273,2.64285714 C27.7503636,2.64285714 28.3409091,3.23617857 28.3409091,3.96428571 L28.3409091,9.25 C28.3409091,10.8357143 29.0553636,12.2443571 30.1626364,13.2142857 C29.0553636,14.1842143 28.3409091,15.5928571 28.3409091,17.1785714 L28.3409091,22.4642857 C28.3409091,23.1923929 27.7503636,23.7857143 27.0227273,23.7857143 C26.2937727,23.7857143 25.7045455,24.3777143 25.7045455,25.1071429 C25.7045455,25.8365714 26.2937727,26.4285714 27.0227273,26.4285714 C29.203,26.4285714 30.9772727,24.6499286 30.9772727,22.4642857 L30.9772727,17.1785714 C30.9772727,15.7210357 32.1596818,14.5357143 33.6136364,14.5357143 C34.3425909,14.5357143 34.9318182,13.9437143 34.9318182,13.2142857 C34.9318182,12.4848571 34.3425909,11.8928571 33.6136364,11.8928571 Z" id="Path"></path>
                <path d="M17.7954545,15.8571429 C17.0665,15.8571429 16.4772727,16.4491429 16.4772727,17.1785714 L16.4772727,21.1428571 C16.4772727,21.8722857 17.0665,22.4642857 17.7954545,22.4642857 C18.5244091,22.4642857 19.1136364,21.8722857 19.1136364,21.1428571 L19.1136364,17.1785714 C19.1136364,16.4491429 18.5244091,15.8571429 17.7954545,15.8571429 Z" id="Path"></path>
            </g>
        </g>
        <g id="003-png" transform="translate(92.000000, 232.000000)">
            <path d="M40.8438636,0 L2.58759091,0 C1.5225,0 0.659090909,0.865535714 0.659090909,2.54507143 L0.659090909,72.6785714 C0.659090909,73.1344643 1.5225,74 2.58759091,74 L55.4124091,74 C56.4775,74 57.3409091,73.1344643 57.3409091,72.6785714 L57.3409091,17.1495 C57.3409091,16.2297857 57.2183182,15.9337857 57.0021364,15.71575 L41.6637727,0.339607143 C41.4462727,0.122892857 41.151,0 40.8438636,0 Z" id="Path" fill="#E9E9E0"></path>
            <path d="M55.4124091,74 L2.58759091,74 C1.5225,74 0.659090909,73.1344643 0.659090909,72.06675 L0.659090909,51.5357143 L57.3409091,51.5357143 L57.3409091,72.06675 C57.3409091,73.1344643 56.4775,74 55.4124091,74 Z" id="Path" fill="#659C35"></path>
            <polygon id="Path" fill="#D9D7CA" points="41.5227273 0.199535714 41.5227273 15.8571429 57.1418636 15.8571429"></polygon>
            <g id="Group" transform="translate(11.863636, 55.500000)" fill="#FFFFFF">
                <path d="M3.14386364,14.5357143 L0.980727273,14.5357143 L0.980727273,1.221 L4.80081818,1.221 C5.365,1.221 5.92390909,1.31085714 6.47622727,1.49189286 C7.02854545,1.67292857 7.52418182,1.94382143 7.96313636,2.30457143 C8.40209091,2.66532143 8.75668182,3.10271429 9.02690909,3.61410714 C9.29713636,4.1255 9.43290909,4.70032143 9.43290909,5.33989286 C9.43290909,6.01514286 9.31822727,6.62564286 9.09018182,7.17403571 C8.86213636,7.72242857 8.54313636,8.18360714 8.1345,8.55625 C7.72586364,8.92889286 7.23286364,9.21828571 6.65681818,9.42310714 C6.08077273,9.62792857 5.44277273,9.72967857 4.74677273,9.72967857 L3.14254545,9.72967857 L3.14254545,14.5357143 L3.14386364,14.5357143 Z M3.14386364,2.86485714 L3.14386364,8.14 L5.12640909,8.14 C5.39004545,8.14 5.65104545,8.09507143 5.91072727,8.00389286 C6.16909091,7.91403571 6.40636364,7.76603571 6.62254545,7.56121429 C6.83872727,7.35639286 7.01272727,7.07096429 7.14454545,6.70360714 C7.27636364,6.33625 7.34227273,5.88167857 7.34227273,5.33989286 C7.34227273,5.12317857 7.31195455,4.87210714 7.25263636,4.59064286 C7.192,4.30785714 7.06940909,4.03696429 6.88354545,3.77796429 C6.69636364,3.51896429 6.43536364,3.30225 6.09922727,3.12782143 C5.76309091,2.95339286 5.31754545,2.86617857 4.76522727,2.86617857 L3.14386364,2.86617857 L3.14386364,2.86485714 Z" id="Shape" fill-rule="nonzero"></path>
                <polygon id="Path" points="21.5074545 1.221 21.5074545 14.5357143 19.3087273 14.5357143 14.1005909 5.35839286 14.1005909 14.5357143 11.9018636 14.5357143 11.9018636 1.221 14.1005909 1.221 19.3087273 10.3983214 19.3087273 1.221"></polygon>
                <path d="M34.4836364,7.67089286 L34.4836364,12.8191786 C34.2068182,13.1693571 33.8983636,13.4534643 33.5556364,13.6767857 C33.2129091,13.9001071 32.8530455,14.0837857 32.4747273,14.2278214 C32.0964091,14.3718571 31.7049091,14.4749286 31.3028636,14.5357143 C30.8995,14.5965 30.5014091,14.6255714 30.1046364,14.6255714 C29.3110909,14.6255714 28.5821364,14.4815357 27.9151364,14.1921429 C27.2481364,13.90275 26.6655,13.4759286 26.1672273,12.9090357 C25.6689545,12.3421429 25.2774545,11.6325357 24.9953636,10.7775714 C24.7132727,9.92260714 24.5722273,8.93417857 24.5722273,7.81492857 C24.5722273,6.69567857 24.7132727,5.70989286 24.9953636,4.86153571 C25.2774545,4.01185714 25.6676364,3.30489286 26.1672273,2.73932143 C26.6655,2.17242857 27.2507727,1.74296429 27.9243636,1.44696429 C28.5966364,1.15096429 29.3242727,1.00428571 30.1046364,1.00428571 C30.8256818,1.00428571 31.4979545,1.12453571 32.1227727,1.36503571 C32.7475909,1.60685714 33.3051818,1.96760714 33.7981818,2.44860714 L32.3020455,3.78589286 C32.0133636,3.43571429 31.6825,3.18332143 31.3107727,3.02739286 C30.9377273,2.87146429 30.5541364,2.79217857 30.1573636,2.79217857 C29.7131364,2.79217857 29.2886818,2.87542857 28.8866364,3.04457143 C28.4832727,3.21371429 28.1234091,3.49914286 27.8057273,3.90217857 C27.4867273,4.30653571 27.2375909,4.82585714 27.0583182,5.46542857 C26.8790455,6.105 26.7815,6.88596429 26.7696364,7.81360714 C26.7815,8.71746429 26.8750909,9.49975 27.0490909,10.1617857 C27.2230909,10.8238214 27.463,11.3656071 27.7701364,11.7871429 C28.0772727,12.2086786 28.4252727,12.5218571 28.8154545,12.7266786 C29.2056364,12.9315 29.6169091,13.03325 30.0505909,13.03325 C30.1824091,13.03325 30.3590455,13.024 30.5818182,13.0055 C30.8032727,12.987 31.0260455,12.9579286 31.2488182,12.9156429 C31.4702727,12.8733571 31.6838182,12.8165357 31.8881364,12.7438571 C32.0924545,12.6711786 32.2427273,12.5694286 32.3389545,12.4372857 L32.3389545,9.14957143 L30.0861818,9.14957143 L30.0861818,7.66825 L34.4836364,7.66825 L34.4836364,7.67089286 Z" id="Path"></path>
            </g>
            <ellipse id="Oval" fill="#F3D55B" cx="17.0454091" cy="19.0695357" rx="6.02277273" ry="6.03760714"></ellipse>
            <polygon id="Path" fill="#88C057" points="0.659090909 51.5357143 15.1590909 51.5357143 57.3409091 51.5357143 57.3409091 37 44.1590909 24.4464286 30.3181818 39.6428571 23.0905909 32.3974643"></polygon>
        </g>
        <g id="004-svg" transform="translate(0.000000, 96.000000)">
            <path d="M40.8438636,0 L2.58759091,0 C1.5225,0 0.659090909,0.865535714 0.659090909,2.54507143 L0.659090909,72.6785714 C0.659090909,73.1344643 1.5225,74 2.58759091,74 L55.4124091,74 C56.4775,74 57.3409091,73.1344643 57.3409091,72.6785714 L57.3409091,17.1495 C57.3409091,16.2297857 57.2183182,15.9337857 57.0021364,15.71575 L41.6637727,0.339607143 C41.4462727,0.122892857 41.151,0 40.8438636,0 Z" id="Path" fill="#E9E9E0"></path>
            <polygon id="Path" fill="#D9D7CA" points="41.5227273 0.199535714 41.5227273 15.8571429 57.1418636 15.8571429"></polygon>
            <path d="M55.4124091,74 L2.58759091,74 C1.5225,74 0.659090909,73.1344643 0.659090909,72.06675 L0.659090909,51.5357143 L57.3409091,51.5357143 L57.3409091,72.06675 C57.3409091,73.1344643 56.4775,74 55.4124091,74 Z" id="Path" fill="#E57E25"></path>
            <g id="Group" transform="translate(11.863636, 55.500000)" fill="#FFFFFF">
                <path d="M8.51413636,10.8859286 C8.51413636,11.3669286 8.41527273,11.8347143 8.21622727,12.2866429 C8.01718182,12.7385714 7.73904545,13.1363214 7.37786364,13.4785714 C7.01668182,13.8208214 6.57377273,14.0956786 6.04386364,14.3005 C5.51395455,14.5053214 4.9155,14.6070714 4.24190909,14.6070714 C3.95322727,14.6070714 3.65663636,14.5912143 3.3495,14.5621429 C3.04236364,14.5330714 2.73390909,14.4802143 2.4215,14.4088571 C2.10909091,14.3375 1.81118182,14.2370714 1.52909091,14.1102143 C1.247,13.9833571 1.00445455,13.8300714 0.798818182,13.6490357 L1.17713636,12.0950357 C1.34586364,12.1915 1.55809091,12.2853214 1.81645455,12.3751786 C2.07481818,12.4650357 2.34109091,12.5496071 2.61790909,12.6275714 C2.89472727,12.7055357 3.17022727,12.7689643 3.44704545,12.8178571 C3.72386364,12.86675 3.98090909,12.8905357 4.22213636,12.8905357 C4.95504545,12.8905357 5.51659091,12.71875 5.90677273,12.3751786 C6.29695455,12.0316071 6.49204545,11.5228571 6.49204545,10.8489286 C6.49204545,10.4392857 6.35495455,10.0904286 6.07813636,9.80103571 C5.80131818,9.51164286 5.45595455,9.25 5.04204545,9.01478571 C4.62813636,8.77957143 4.17995455,8.54567857 3.69881818,8.31046429 C3.21768182,8.07525 2.76818182,7.79775 2.34768182,7.47928571 C1.92718182,7.16082143 1.57918182,6.78421429 1.30236364,6.35078571 C1.02554545,5.91735714 0.888454545,5.37557143 0.888454545,4.72542857 C0.888454545,4.13607143 0.996545455,3.61146429 1.21272727,3.15425 C1.42890909,2.69703571 1.72022727,2.30721429 2.08668182,1.98875 C2.45313636,1.67028571 2.88022727,1.42582143 3.36663636,1.25667857 C3.85304545,1.08753571 4.36713636,1.00428571 4.90759091,1.00428571 C5.45990909,1.00428571 6.01881818,1.05582143 6.583,1.15757143 C7.14718182,1.25932143 7.60327273,1.42582143 7.95259091,1.65442857 C7.88009091,1.81035714 7.79704545,1.98214286 7.70081818,2.16978571 C7.60459091,2.35742857 7.51363636,2.53053571 7.43059091,2.69307143 C7.34754545,2.85560714 7.27504545,2.99171429 7.21440909,3.10007143 C7.15377273,3.20842857 7.11818182,3.26921429 7.10631818,3.28110714 C7.03381818,3.24542857 6.95340909,3.19785714 6.86245455,3.13707143 C6.7715,3.07628571 6.64363636,3.01682143 6.47490909,2.95603571 C6.30618182,2.89525 6.08472727,2.85428571 5.80790909,2.82917857 C5.53109091,2.80407143 5.1765,2.81067857 4.74413636,2.84767857 C4.50290909,2.87278571 4.27618182,2.94017857 4.05868182,3.05514286 C3.84118182,3.17010714 3.65004545,3.31017857 3.48131818,3.47932143 C3.31259091,3.64846429 3.18077273,3.83742857 3.08454545,4.04885714 C2.98831818,4.26028571 2.94086364,4.46246429 2.94086364,4.65407143 C2.94086364,5.13507143 3.07795455,5.52357143 3.35477273,5.81957143 C3.63159091,6.11557143 3.97431818,6.37325 4.38163636,6.59657143 C4.78895455,6.81989286 5.2345,7.03660714 5.71563636,7.24671429 C6.19677273,7.45682143 6.64363636,7.7145 7.05886364,8.01446429 C7.47409091,8.31442857 7.81813636,8.69235714 8.09495455,9.14296429 C8.37177273,9.59357143 8.51413636,10.175 8.51413636,10.8859286 Z" id="Path"></path>
                <polygon id="Path" points="14.3167727 14.6083929 10.1895455 1.221 12.6585 1.221 15.7404091 12.7108214 19.0029091 1.221 21.4534091 1.221 17.1284545 14.6083929"></polygon>
                <path d="M33.8350909,7.67089286 L33.8350909,12.8191786 C33.5582727,13.1693571 33.2498182,13.4534643 32.9070909,13.6767857 C32.5643636,13.9001071 32.2045,14.0837857 31.8261818,14.2278214 C31.4478636,14.3718571 31.0576818,14.4749286 30.6543182,14.5357143 C30.2509545,14.5965 29.8528636,14.6255714 29.4560909,14.6255714 C28.6625455,14.6255714 27.9335909,14.4815357 27.2665909,14.1921429 C26.5995909,13.90275 26.0169545,13.4759286 25.5186818,12.9090357 C25.0204091,12.3421429 24.6289091,11.6325357 24.3468182,10.7775714 C24.0647273,9.92260714 23.9236818,8.93417857 23.9236818,7.81492857 C23.9236818,6.69567857 24.0647273,5.70989286 24.3468182,4.86153571 C24.6289091,4.01317857 25.0204091,3.30489286 25.5186818,2.73932143 C26.0169545,2.17375 26.6022273,1.74296429 27.2758182,1.44696429 C27.9494091,1.15096429 28.6757273,1.00428571 29.4560909,1.00428571 C30.1771364,1.00428571 30.8507273,1.12453571 31.4742273,1.36503571 C32.0977273,1.60553571 32.6566364,1.96760714 33.1496364,2.44860714 L31.6535,3.78589286 C31.3648182,3.43571429 31.0339545,3.18332143 30.6622273,3.02739286 C30.2905,2.87146429 29.9055909,2.79217857 29.5088182,2.79217857 C29.0645909,2.79217857 28.6414545,2.87542857 28.2380909,3.04457143 C27.8347273,3.21371429 27.4748636,3.49914286 27.1571818,3.90217857 C26.8395,4.30521429 26.5890455,4.82585714 26.4097727,5.46542857 C26.2305,6.105 26.1329545,6.88596429 26.1210909,7.81360714 C26.1329545,8.71746429 26.2265455,9.49975 26.4005455,10.1617857 C26.5745455,10.8238214 26.8144545,11.3656071 27.1215909,11.7871429 C27.4287273,12.2086786 27.7767273,12.5218571 28.1669091,12.7266786 C28.5570909,12.9315 28.9683636,13.03325 29.4020455,13.03325 C29.5351818,13.03325 29.7105,13.024 29.9332727,13.0055 C30.1560455,12.987 30.3775,12.9579286 30.6002727,12.9156429 C30.8230455,12.8733571 31.0352727,12.8165357 31.2395909,12.7438571 C31.4439091,12.6711786 31.5941818,12.5694286 31.6904091,12.4372857 L31.6904091,9.14957143 L29.4376364,9.14957143 L29.4376364,7.66825 L33.8350909,7.66825 L33.8350909,7.67089286 Z" id="Path"></path>
            </g>
            <path d="M52.0681818,29.0714286 L52.0681818,21.1428571 L44.1590909,21.1428571 L44.1590909,23.7857143 L36.25,23.7857143 L36.25,18.5 L23.0681818,18.5 L23.0681818,23.7857143 L15.1590909,23.7857143 L15.1590909,21.1428571 L7.25,21.1428571 L7.25,29.0714286 L15.1590909,29.0714286 L15.1590909,26.4285714 L19.836,26.4285714 C13.8171818,29.9118571 9.88636364,36.4555714 9.88636364,43.6071429 C9.88636364,44.3365714 10.4755909,44.9285714 11.2045455,44.9285714 C11.9335,44.9285714 12.5227273,44.3365714 12.5227273,43.6071429 C12.5227273,36.6749286 16.7791364,30.3941786 23.0681818,27.7566071 L23.0681818,31.7142857 L36.25,31.7142857 L36.25,27.7566071 C42.5390455,30.3955 46.7954545,36.67625 46.7954545,43.6071429 C46.7954545,44.3365714 47.3846818,44.9285714 48.1136364,44.9285714 C48.8425909,44.9285714 49.4318182,44.3365714 49.4318182,43.6071429 C49.4318182,36.4555714 45.501,29.9118571 39.4821818,26.4285714 L44.1590909,26.4285714 L44.1590909,29.0714286 L52.0681818,29.0714286 Z M12.5227273,26.4285714 L9.88636364,26.4285714 L9.88636364,23.7857143 L12.5227273,23.7857143 L12.5227273,26.4285714 Z M33.6136364,29.0714286 L25.7045455,29.0714286 L25.7045455,24.1107857 L25.7045455,21.1428571 L33.6136364,21.1428571 L33.6136364,24.1107857 L33.6136364,29.0714286 Z M46.7954545,23.7857143 L49.4318182,23.7857143 L49.4318182,26.4285714 L46.7954545,26.4285714 L46.7954545,23.7857143 Z" id="Shape" fill="#C8BDB8" fill-rule="nonzero"></path>
        </g>
        <g id="005-css" transform="translate(83.000000, 139.000000)">
            <path d="M40.8438636,0 L2.58759091,0 C1.5225,0 0.659090909,0.865535714 0.659090909,2.54507143 L0.659090909,72.6785714 C0.659090909,73.1344643 1.5225,74 2.58759091,74 L55.4124091,74 C56.4775,74 57.3409091,73.1344643 57.3409091,72.6785714 L57.3409091,17.1495 C57.3409091,16.2297857 57.2183182,15.9337857 57.0021364,15.71575 L41.6637727,0.339607143 C41.4462727,0.122892857 41.151,0 40.8438636,0 Z" id="Path" fill="#E9E9E0"></path>
            <polygon id="Path" fill="#D9D7CA" points="41.5227273 0.199535714 41.5227273 15.8571429 57.1418636 15.8571429"></polygon>
            <path d="M55.4124091,74 L2.58759091,74 C1.5225,74 0.659090909,73.1344643 0.659090909,72.06675 L0.659090909,51.5357143 L57.3409091,51.5357143 L57.3409091,72.06675 C57.3409091,73.1344643 56.4775,74 55.4124091,74 Z" id="Path" fill="#0096E6"></path>
            <g id="Group" transform="translate(13.181818, 55.500000)" fill="#FFFFFF">
                <path d="M9.99181818,13.18125 C9.49881818,13.66225 8.93990909,14.0243214 8.31640909,14.2648214 C7.69290909,14.5053214 7.01931818,14.6255714 6.29827273,14.6255714 C5.50472727,14.6255714 4.77577273,14.4815357 4.10877273,14.1921429 C3.44177273,13.90275 2.85913636,13.4759286 2.36086364,12.9090357 C1.86259091,12.3421429 1.47109091,11.6325357 1.189,10.7775714 C0.906909091,9.92260714 0.765863636,8.93417857 0.765863636,7.81492857 C0.765863636,6.69567857 0.906909091,5.70989286 1.189,4.86153571 C1.47109091,4.01185714 1.86259091,3.30489286 2.36086364,2.73932143 C2.85913636,2.17375 3.44440909,1.74296429 4.118,1.44696429 C4.79159091,1.15096429 5.51790909,1.00428571 6.29827273,1.00428571 C7.01931818,1.00428571 7.69290909,1.12453571 8.31640909,1.36503571 C8.93990909,1.60553571 9.49881818,1.96760714 9.99181818,2.44860714 L8.49568182,3.78589286 C8.19513636,3.43571429 7.86295455,3.18332143 7.49518182,3.02739286 C7.12740909,2.87146429 6.74777273,2.79217857 6.351,2.79217857 C5.90677273,2.79217857 5.48363636,2.87542857 5.08027273,3.04457143 C4.67690909,3.21371429 4.31704545,3.49914286 3.99936364,3.90217857 C3.68168182,4.30521429 3.43122727,4.82585714 3.25195455,5.46542857 C3.07268182,6.105 2.97513636,6.88596429 2.96327273,7.81360714 C2.97513636,8.71746429 3.06872727,9.48785714 3.24272727,10.1261071 C3.41672727,10.7643571 3.65663636,11.285 3.96377273,11.6893571 C4.27090909,12.0937143 4.61890909,12.3870714 5.00909091,12.5747143 C5.39927273,12.7623571 5.81054545,12.8548571 6.24422727,12.8548571 C6.67790909,12.8548571 7.08259091,12.7755714 7.46090909,12.6196429 C7.83922727,12.4637143 8.18459091,12.21 8.497,11.8611429 L9.99181818,13.18125 Z" id="Path"></path>
                <path d="M20.6071364,10.8859286 C20.6071364,11.3669286 20.5082727,11.8347143 20.3092273,12.2866429 C20.1101818,12.7385714 19.8320455,13.1363214 19.4708636,13.4785714 C19.1096818,13.8208214 18.6667727,14.0956786 18.1368636,14.3005 C17.6069545,14.5053214 17.0085,14.6070714 16.3349091,14.6070714 C16.0462273,14.6070714 15.7496364,14.5912143 15.4425,14.5621429 C15.1353636,14.5330714 14.8269091,14.4802143 14.5145,14.4088571 C14.2020909,14.3375 13.9041818,14.2370714 13.6220909,14.1102143 C13.34,13.9833571 13.0974545,13.8300714 12.8918182,13.6490357 L13.2701364,12.0950357 C13.4388636,12.1915 13.6510909,12.2853214 13.9094545,12.3751786 C14.1678182,12.4650357 14.4340909,12.5496071 14.7109091,12.6275714 C14.9877273,12.7055357 15.2632273,12.7689643 15.5400455,12.8178571 C15.8168636,12.86675 16.0739091,12.8905357 16.3151364,12.8905357 C17.0480455,12.8905357 17.6095909,12.71875 17.9997727,12.3751786 C18.3899545,12.0316071 18.5850455,11.5228571 18.5850455,10.8489286 C18.5850455,10.4392857 18.4479545,10.0904286 18.1711364,9.80103571 C17.8943182,9.51164286 17.5489545,9.25 17.1350455,9.01478571 C16.7211364,8.77957143 16.2729545,8.54567857 15.7918182,8.31046429 C15.3106818,8.07525 14.8611818,7.79775 14.4406818,7.47928571 C14.0201818,7.16082143 13.6721818,6.78421429 13.3953636,6.35078571 C13.1185455,5.91735714 12.9814545,5.37557143 12.9814545,4.72542857 C12.9814545,4.13607143 13.0895455,3.61146429 13.3057273,3.15425 C13.5219091,2.69703571 13.8132273,2.30721429 14.1796818,1.98875 C14.5461364,1.67028571 14.9732273,1.42582143 15.4596364,1.25667857 C15.9460455,1.08753571 16.4601364,1.00428571 17.0005909,1.00428571 C17.5529091,1.00428571 18.1118182,1.05582143 18.676,1.15757143 C19.2401818,1.25932143 19.6962727,1.42582143 20.0455909,1.65442857 C19.9730909,1.81035714 19.8900455,1.98214286 19.7938182,2.16978571 C19.6975909,2.35742857 19.6066364,2.53053571 19.5235909,2.69307143 C19.4405455,2.85560714 19.3680455,2.99171429 19.3074091,3.10007143 C19.2467727,3.20842857 19.2111818,3.26921429 19.1993182,3.28110714 C19.1268182,3.24542857 19.0464091,3.19785714 18.9554545,3.13707143 C18.8645,3.07628571 18.7366364,3.01682143 18.5679091,2.95603571 C18.3991818,2.89525 18.1777273,2.85428571 17.9009091,2.82917857 C17.6240909,2.80407143 17.2695,2.81067857 16.8371364,2.84767857 C16.5959091,2.87278571 16.3691818,2.94017857 16.1516818,3.05514286 C15.9341818,3.17010714 15.7430455,3.31017857 15.5743182,3.47932143 C15.4055909,3.64846429 15.2737727,3.83742857 15.1775455,4.04885714 C15.0813182,4.26028571 15.0338636,4.46246429 15.0338636,4.65407143 C15.0338636,5.13507143 15.1709545,5.52357143 15.4477727,5.81957143 C15.7245909,6.11557143 16.0673182,6.37325 16.4746364,6.59657143 C16.8819545,6.81989286 17.3275,7.03660714 17.8086364,7.24671429 C18.2897727,7.45682143 18.7366364,7.7145 19.1518636,8.01446429 C19.5670909,8.31442857 19.9111364,8.69235714 20.1879545,9.14296429 C20.4647727,9.59357143 20.6071364,10.175 20.6071364,10.8859286 Z" id="Path"></path>
                <path d="M30.3748636,10.8859286 C30.3748636,11.3669286 30.276,11.8347143 30.0769545,12.2866429 C29.8779091,12.7385714 29.5997727,13.1363214 29.2385909,13.4785714 C28.8774091,13.8208214 28.4345,14.0956786 27.9045909,14.3005 C27.3746818,14.5053214 26.7762273,14.6070714 26.1026364,14.6070714 C25.8139545,14.6070714 25.5173636,14.5912143 25.2102273,14.5621429 C24.9030909,14.5330714 24.5946364,14.4802143 24.2822273,14.4088571 C23.9698182,14.3375 23.6719091,14.2370714 23.3898182,14.1102143 C23.1077273,13.9833571 22.8651818,13.8300714 22.6595455,13.6490357 L23.0378636,12.0950357 C23.2065909,12.1915 23.4188182,12.2853214 23.6771818,12.3751786 C23.9355455,12.4650357 24.2018182,12.5496071 24.4786364,12.6275714 C24.7554545,12.7055357 25.0309545,12.7689643 25.3077727,12.8178571 C25.5845909,12.86675 25.8416364,12.8905357 26.0828636,12.8905357 C26.8157727,12.8905357 27.3773182,12.71875 27.7675,12.3751786 C28.1576818,12.0316071 28.3527727,11.5228571 28.3527727,10.8489286 C28.3527727,10.4392857 28.2156818,10.0904286 27.9388636,9.80103571 C27.6620455,9.51164286 27.3166818,9.25 26.9027727,9.01478571 C26.4888636,8.77957143 26.0406818,8.54567857 25.5595455,8.31046429 C25.0784091,8.07525 24.6289091,7.79775 24.2084091,7.47928571 C23.7879091,7.16082143 23.4399091,6.78421429 23.1630909,6.35078571 C22.8862727,5.91735714 22.7491818,5.37557143 22.7491818,4.72542857 C22.7491818,4.13607143 22.8572727,3.61146429 23.0734545,3.15425 C23.2896364,2.69703571 23.5809545,2.30721429 23.9474091,1.98875 C24.3138636,1.67028571 24.7409545,1.42582143 25.2273636,1.25667857 C25.7137727,1.08753571 26.2278636,1.00428571 26.7683182,1.00428571 C27.3206364,1.00428571 27.8795455,1.05582143 28.4437273,1.15757143 C29.0079091,1.25932143 29.464,1.42582143 29.8133182,1.65442857 C29.7408182,1.81035714 29.6577727,1.98214286 29.5615455,2.16978571 C29.4653182,2.35742857 29.3743636,2.53053571 29.2913182,2.69307143 C29.2082727,2.85560714 29.1357727,2.99171429 29.0751364,3.10007143 C29.0145,3.20842857 28.9789091,3.26921429 28.9670455,3.28110714 C28.8945455,3.24542857 28.8141364,3.19785714 28.7231818,3.13707143 C28.6322273,3.07628571 28.5043636,3.01682143 28.3356364,2.95603571 C28.1669091,2.89525 27.9454545,2.85428571 27.6686364,2.82917857 C27.3918182,2.80407143 27.0372273,2.81067857 26.6048636,2.84767857 C26.3636364,2.87278571 26.1369091,2.94017857 25.9194091,3.05514286 C25.7019091,3.17010714 25.5107727,3.31017857 25.3420455,3.47932143 C25.1733182,3.64846429 25.0415,3.83742857 24.9452727,4.04885714 C24.8490455,4.26028571 24.8015909,4.46246429 24.8015909,4.65407143 C24.8015909,5.13507143 24.9386818,5.52357143 25.2155,5.81957143 C25.4923182,6.11557143 25.8350455,6.37325 26.2423636,6.59657143 C26.6496818,6.81989286 27.0952273,7.03660714 27.5763636,7.24671429 C28.0575,7.45682143 28.5043636,7.7145 28.9195909,8.01446429 C29.3348182,8.31442857 29.6788636,8.69235714 29.9556818,9.14296429 C30.2325,9.59357143 30.3748636,10.175 30.3748636,10.8859286 Z" id="Path"></path>
            </g>
            <g id="Group" transform="translate(10.545455, 15.857143)" fill="#0096E6">
                <path d="M7.25,9.25 L7.25,3.96428571 C7.25,3.23617857 7.84054545,2.64285714 8.56818182,2.64285714 C9.29713636,2.64285714 9.88636364,2.05085714 9.88636364,1.32142857 C9.88636364,0.592 9.29713636,0 8.56818182,0 C6.38790909,0 4.61363636,1.77864286 4.61363636,3.96428571 L4.61363636,9.25 C4.61363636,10.7075357 3.43122727,11.8928571 1.97727273,11.8928571 C1.24831818,11.8928571 0.659090909,12.4848571 0.659090909,13.2142857 C0.659090909,13.9437143 1.24831818,14.5357143 1.97727273,14.5357143 C3.43122727,14.5357143 4.61363636,15.7210357 4.61363636,17.1785714 L4.61363636,22.4642857 C4.61363636,24.6499286 6.38790909,26.4285714 8.56818182,26.4285714 C9.29713636,26.4285714 9.88636364,25.8365714 9.88636364,25.1071429 C9.88636364,24.3777143 9.29713636,23.7857143 8.56818182,23.7857143 C7.84054545,23.7857143 7.25,23.1923929 7.25,22.4642857 L7.25,17.1785714 C7.25,15.5928571 6.53554545,14.1842143 5.42827273,13.2142857 C6.53554545,12.2443571 7.25,10.8357143 7.25,9.25 Z" id="Path"></path>
                <path d="M33.6136364,11.8928571 C32.1596818,11.8928571 30.9772727,10.7075357 30.9772727,9.25 L30.9772727,3.96428571 C30.9772727,1.77864286 29.203,0 27.0227273,0 C26.2937727,0 25.7045455,0.592 25.7045455,1.32142857 C25.7045455,2.05085714 26.2937727,2.64285714 27.0227273,2.64285714 C27.7503636,2.64285714 28.3409091,3.23617857 28.3409091,3.96428571 L28.3409091,9.25 C28.3409091,10.8357143 29.0553636,12.2443571 30.1626364,13.2142857 C29.0553636,14.1842143 28.3409091,15.5928571 28.3409091,17.1785714 L28.3409091,22.4642857 C28.3409091,23.1923929 27.7503636,23.7857143 27.0227273,23.7857143 C26.2937727,23.7857143 25.7045455,24.3777143 25.7045455,25.1071429 C25.7045455,25.8365714 26.2937727,26.4285714 27.0227273,26.4285714 C29.203,26.4285714 30.9772727,24.6499286 30.9772727,22.4642857 L30.9772727,17.1785714 C30.9772727,15.7210357 32.1596818,14.5357143 33.6136364,14.5357143 C34.3425909,14.5357143 34.9318182,13.9437143 34.9318182,13.2142857 C34.9318182,12.4848571 34.3425909,11.8928571 33.6136364,11.8928571 Z" id="Path"></path>
            </g>
        </g>
        <g id="settings-gears" transform="translate(258.000000, 109.000000)" fill="#FFFFFF" fill-rule="nonzero">
            <path d="M8.8614097,48.7763939 C9.57091325,51.2094135 10.5555304,53.5555395 11.8007815,55.7568429 L8.25326381,60.231861 C7.09489067,61.6945692 7.22520765,63.7800145 8.52837743,65.0979001 L14.6387957,71.2094135 C15.9564452,72.5272991 18.0415168,72.6430123 19.5039629,71.4844316 L23.9492198,67.9652426 C26.2370068,69.283273 28.6695904,70.3113686 31.2035316,71.0354815 L31.8695961,76.7559739 C32.0867911,78.6097031 33.6505948,80 35.5039919,80 L44.1483514,80 C46.0017484,80 47.5655522,78.6095583 47.7827471,76.7559739 L48.4198523,71.2382332 C51.1420292,70.5286025 53.7483688,69.4713975 56.195432,68.0955829 L60.4958923,71.4989138 C61.9583384,72.6574946 64.04341,72.5271542 65.3610595,71.2237509 L71.4714778,65.1122375 C72.7891272,63.7943519 72.9049645,61.7089066 71.7465914,60.2461984 L68.401789,56.0028965 C69.7918367,53.5986966 70.8778115,51.0354815 71.6017948,48.3562636 L76.7565552,47.7624909 C78.610097,47.5452571 80,45.9811731 80,44.1274439 L80,35.4815351 C80,33.6278059 78.6099522,32.0637219 76.7565552,31.8464881 L71.6741931,31.2527154 C70.9790244,28.602462 69.9366334,26.0680666 68.6046491,23.6929761 L71.7322565,19.7393193 C72.8906297,18.2766112 72.7603127,16.1911658 71.4571429,14.8732802 L65.3612043,8.77624909 C64.0435548,7.4583635 61.9584832,7.34250543 60.4960371,8.50108617 L56.6589261,11.5423606 C54.1684238,10.0796524 51.5040208,8.96451846 48.7095904,8.21144098 L48.1304039,3.24402607 C47.9132089,1.39029689 46.3494052,0 44.4960081,0 L35.8516486,0 C33.9982516,0 32.4344478,1.39029689 32.2172529,3.24402607 L31.6380663,8.21144098 C28.7710928,8.97900072 26.0344363,10.1375815 23.4860154,11.6582187 L19.5041077,8.50108617 C18.0416616,7.34250543 15.95659,7.47284576 14.6389405,8.77624909 L8.52852222,14.8877625 C7.21087278,16.2056481 7.09503547,18.2910934 8.2534086,19.7538016 L11.5837314,23.968139 C10.2516023,26.3721941 9.23802577,28.9355539 8.57196122,31.6002896 L3.24344478,32.2085445 C1.39004776,32.4257784 0,33.9898624 0,35.8435916 L0,44.4895004 C0,46.3432295 1.39004776,47.9073135 3.24344478,48.1245474 L8.8614097,48.7763939 Z M40.1809234,25.3875453 C48.0578607,25.3875453 54.472352,31.8031861 54.472352,39.6815351 C54.472352,47.5598841 48.0578607,53.975525 40.1809234,53.975525 C32.3041309,53.975525 25.8894948,47.5598841 25.8894948,39.6815351 C25.8894948,31.8031861 32.3039861,25.3875453 40.1809234,25.3875453 Z" id="Shape"></path>
            <path d="M125.631583,50.9363368 L121.054888,47.0766616 C119.645702,45.886837 117.567882,45.9448772 116.231342,47.2072522 L113.703263,49.5723915 C111.567617,48.5421774 109.301064,47.8166746 106.961719,47.3958829 L106.250079,43.9134692 C105.886849,42.1142221 104.215992,40.8663572 102.385024,41.0114578 L96.4135262,41.5193098 C94.5828482,41.6789204 93.1444584,43.1734563 93.0863416,45.0162335 L92.9702534,48.5566875 C90.674496,49.3837607 88.5096466,50.5155452 86.5336767,51.9375308 L83.5117503,49.9351429 C81.9713656,48.9194389 79.922895,49.20964 78.7316467,50.6171156 L74.866882,55.2168037 C73.6753431,56.6242792 73.7334598,58.6992174 74.9973541,60.0341426 L77.6418121,62.8489486 C76.7263278,64.9093767 76.0725142,67.0715203 75.6949005,69.2914139 L71.917311,70.060447 C70.1156914,70.4231984 68.866181,72.0918549 69.0114729,73.9202672 L69.5199946,79.8839007 C69.6798157,81.7121679 71.1763223,83.1486635 73.0215295,83.2067038 L77.104232,83.3371492 C77.8455113,85.2814968 78.8188218,87.1244192 79.9955409,88.8509709 L77.7146033,92.2898544 C76.69756,93.8279204 76.9881438,95.8738385 78.39733,97.0636632 L82.974025,100.923338 C84.3835018,102.113163 86.4610307,102.055123 87.7978615,100.792748 L90.7908748,97.9923068 C92.7523155,98.9064404 94.8153153,99.5884131 96.9365771,99.9946947 L97.7648863,104.086531 C98.128116,105.885778 99.7989729,107.133643 101.629651,106.988542 L107.601148,106.48069 C109.431826,106.32108 110.870216,104.826689 110.928333,102.983766 L111.059096,98.9788456 C113.238474,98.2098126 115.301474,97.1650885 117.204798,95.8738385 L120.503069,98.0503471 C122.043164,99.0660511 124.091634,98.7758499 125.283173,97.3683744 L129.147938,92.7977064 C130.339186,91.3902309 130.281069,89.3152927 129.017175,87.9803674 L126.358188,85.1655615 C127.331789,83.1051334 128.043865,80.9286248 128.450391,78.6939309 L132.082689,77.953918 C133.884309,77.5911666 135.133819,75.92251 134.988527,74.0940977 L134.480005,68.1304643 C134.320184,66.3021971 132.823678,64.8657014 130.978471,64.8076612 L127.331644,64.6915807 C126.57598,62.5731124 125.558937,60.5708696 124.295043,58.7134372 L126.285397,55.7243655 C127.331644,54.1865896 127.04106,52.1261615 125.631583,50.9363368 Z M103.126158,85.4120873 C96.675197,85.9636146 90.9794637,81.1606406 90.4420289,74.7183204 C89.8897744,68.275855 94.699227,62.5877676 101.149897,62.0508954 C107.600858,61.4995133 113.296591,66.3024873 113.834026,72.7448075 C114.38628,79.187418 109.576828,84.8753603 103.126158,85.4120873 Z" id="Shape"></path>
            <path d="M29.3241546,101.339427 C27.4792837,101.529822 26.059026,103.082122 26.0443841,104.942276 L26.0004586,108.647644 C25.971175,110.507651 27.3475072,112.08939 29.1923781,112.323868 L31.9157589,112.675219 C32.3696558,114.330332 33.0138964,115.91207 33.8484808,117.405934 L32.0914609,119.573502 C30.9201143,121.023282 31.0079653,123.103122 32.3110884,124.435883 L34.9026928,127.086759 C36.2058159,128.41952 38.2849561,128.565977 39.7637812,127.423611 L41.9452678,125.739352 C43.4826602,126.647387 45.10805,127.365174 46.8063562,127.862982 L47.0991928,130.674962 C47.2895366,132.520323 48.8415709,133.940958 50.7010836,133.955604 L54.4056136,133.999541 C56.2649799,134.028833 57.8464443,132.652135 58.0807136,130.806773 L58.4174757,128.141251 C60.2624931,127.687087 62.019513,126.998885 63.6885354,126.09085 L65.738392,127.745817 C67.1879334,128.917475 69.26722,128.8296 70.5996268,127.526131 L73.2497985,124.933837 C74.5822052,123.630514 74.7286235,121.550675 73.586707,120.071456 L72.0197381,118.035554 C72.9860991,116.424524 73.7329789,114.710974 74.2454431,112.90955 L76.6759873,112.660573 C78.5208582,112.470178 79.9409695,110.917732 79.9557577,109.057724 L79.9995368,105.352209 C80.0289669,103.492349 78.6526347,101.910464 76.8077638,101.676132 L74.4356405,101.368572 C73.9817437,99.5817936 73.3083658,97.853598 72.4298558,96.2425682 L73.9086809,94.4264983 C75.0800275,92.9765715 74.9921765,90.8968785 73.6890534,89.5641174 L71.0975955,86.9132411 C69.7944724,85.5803337 67.7150394,85.4338764 66.2363607,86.5763895 L64.4645526,87.9384419 C62.7955301,86.9278869 61.0090801,86.1516634 59.135072,85.6244173 L58.9006562,83.3250384 C58.7103124,81.4795306 57.1584246,80.0590416 55.2987654,80.0443959 L51.5943818,80.0004587 C49.7348691,79.9711673 48.1535512,81.3478655 47.9191354,83.1932269 L47.6262988,85.4781065 C45.6937233,85.9759147 43.8342106,86.7376389 42.1064744,87.7334018 L40.2762453,86.2395378 C38.8267039,85.0678797 36.7474172,85.1559005 35.4150105,86.4592237 L32.750197,89.0663092 C31.4177902,90.3696323 31.2713719,92.4494718 32.4134348,93.9285436 L33.9801109,95.9498002 C33.0723173,97.56083 32.3548675,99.2742334 31.8863289,101.075804 L29.3241546,101.339427 Z M53.234267,97.1506032 C58.5492522,97.2091861 62.8098791,101.588404 62.7514582,106.904803 C62.6928908,112.221201 58.3148365,116.482961 52.9998513,116.424524 C47.6848661,116.365941 43.4242393,111.98687 43.4826602,106.670325 C43.5413739,101.354073 47.9192819,97.0921668 53.234267,97.1506032 Z" id="Shape"></path>
        </g>
        <g id="001-browser" transform="translate(640.000000, 83.000000)">
            <rect id="Rectangle" fill="#ECF0F1" x="0" y="0" width="138" height="139"></rect>
            <rect id="Rectangle" fill="#546A79" x="0" y="0" width="138" height="28.7586207"></rect>
            <ellipse id="Oval" fill="#ED7161" cx="14.2758621" cy="14.3793103" rx="7.13793103" ry="7.18965517"></ellipse>
            <ellipse id="Oval" fill="#F0C419" cx="35.6896552" cy="14.3793103" rx="7.13793103" ry="7.18965517"></ellipse>
            <ellipse id="Oval" fill="#4FBA6F" cx="57.1034483" cy="14.3793103" rx="7.13793103" ry="7.18965517"></ellipse>
            <polygon id="Path" fill="#8697CB" points="0 28.7586207 0 74.2931034 14.2758621 74.2931034 14.2758621 59.9137931 42.8275862 59.9137931 42.8275862 74.2931034 54.7241379 74.2931034 54.7241379 59.9137931 83.2758621 59.9137931 83.2758621 74.2931034 95.1724138 74.2931034 95.1724138 59.9137931 123.724138 59.9137931 123.724138 74.2931034 138 74.2931034 138 28.7586207"></polygon>
            <path d="M40.4482759,105.448276 L16.6551724,105.448276 C15.3394138,105.448276 14.2758621,104.374621 14.2758621,103.051724 C14.2758621,101.728828 15.3394138,100.655172 16.6551724,100.655172 L40.4482759,100.655172 C41.7640345,100.655172 42.8275862,101.728828 42.8275862,103.051724 C42.8275862,104.374621 41.7640345,105.448276 40.4482759,105.448276 Z" id="Path" fill="#BDC3C7"></path>
            <path d="M40.4482759,115.034483 L16.6551724,115.034483 C15.3394138,115.034483 14.2758621,113.960828 14.2758621,112.637931 C14.2758621,111.315034 15.3394138,110.241379 16.6551724,110.241379 L40.4482759,110.241379 C41.7640345,110.241379 42.8275862,111.315034 42.8275862,112.637931 C42.8275862,113.960828 41.7640345,115.034483 40.4482759,115.034483 Z" id="Path" fill="#BDC3C7"></path>
            <path d="M40.4482759,124.62069 L16.6551724,124.62069 C15.3394138,124.62069 14.2758621,123.547034 14.2758621,122.224138 C14.2758621,120.901241 15.3394138,119.827586 16.6551724,119.827586 L40.4482759,119.827586 C41.7640345,119.827586 42.8275862,120.901241 42.8275862,122.224138 C42.8275862,123.547034 41.7640345,124.62069 40.4482759,124.62069 Z" id="Path" fill="#BDC3C7"></path>
            <path d="M80.8965517,105.448276 L57.1034483,105.448276 C55.7876897,105.448276 54.7241379,104.374621 54.7241379,103.051724 C54.7241379,101.728828 55.7876897,100.655172 57.1034483,100.655172 L80.8965517,100.655172 C82.2123103,100.655172 83.2758621,101.728828 83.2758621,103.051724 C83.2758621,104.374621 82.2123103,105.448276 80.8965517,105.448276 Z" id="Path" fill="#BDC3C7"></path>
            <path d="M80.8965517,115.034483 L57.1034483,115.034483 C55.7876897,115.034483 54.7241379,113.960828 54.7241379,112.637931 C54.7241379,111.315034 55.7876897,110.241379 57.1034483,110.241379 L80.8965517,110.241379 C82.2123103,110.241379 83.2758621,111.315034 83.2758621,112.637931 C83.2758621,113.960828 82.2123103,115.034483 80.8965517,115.034483 Z" id="Path" fill="#BDC3C7"></path>
            <path d="M80.8965517,124.62069 L57.1034483,124.62069 C55.7876897,124.62069 54.7241379,123.547034 54.7241379,122.224138 C54.7241379,120.901241 55.7876897,119.827586 57.1034483,119.827586 L80.8965517,119.827586 C82.2123103,119.827586 83.2758621,120.901241 83.2758621,122.224138 C83.2758621,123.547034 82.2123103,124.62069 80.8965517,124.62069 Z" id="Path" fill="#BDC3C7"></path>
            <path d="M121.344828,105.448276 L97.5517241,105.448276 C96.2359655,105.448276 95.1724138,104.374621 95.1724138,103.051724 C95.1724138,101.728828 96.2359655,100.655172 97.5517241,100.655172 L121.344828,100.655172 C122.660586,100.655172 123.724138,101.728828 123.724138,103.051724 C123.724138,104.374621 122.660586,105.448276 121.344828,105.448276 Z" id="Path" fill="#BDC3C7"></path>
            <path d="M121.344828,115.034483 L97.5517241,115.034483 C96.2359655,115.034483 95.1724138,113.960828 95.1724138,112.637931 C95.1724138,111.315034 96.2359655,110.241379 97.5517241,110.241379 L121.344828,110.241379 C122.660586,110.241379 123.724138,111.315034 123.724138,112.637931 C123.724138,113.960828 122.660586,115.034483 121.344828,115.034483 Z" id="Path" fill="#BDC3C7"></path>
            <path d="M121.344828,124.62069 L97.5517241,124.62069 C96.2359655,124.62069 95.1724138,123.547034 95.1724138,122.224138 C95.1724138,120.901241 96.2359655,119.827586 97.5517241,119.827586 L121.344828,119.827586 C122.660586,119.827586 123.724138,120.901241 123.724138,122.224138 C123.724138,123.547034 122.660586,124.62069 121.344828,124.62069 Z" id="Path" fill="#BDC3C7"></path>
            <rect id="Rectangle" fill="#67B9CC" x="14.2758621" y="59.9137931" width="28.5517241" height="28.7586207"></rect>
            <rect id="Rectangle" fill="#67B9CC" x="95.1724138" y="59.9137931" width="28.5517241" height="28.7586207"></rect>
            <rect id="Rectangle" fill="#67B9CC" x="54.7241379" y="59.9137931" width="28.5517241" height="28.7586207"></rect>
        </g>
        <g id="002-browser-1" transform="translate(484.000000, 184.000000)">
            <rect id="Rectangle" fill="#ECF0F1" x="0" y="0" width="138" height="139"></rect>
            <rect id="Rectangle" fill="#546A79" x="0" y="0" width="138" height="28.7586207"></rect>
            <ellipse id="Oval" fill="#ED7161" cx="14.2758621" cy="14.3793103" rx="7.13793103" ry="7.18965517"></ellipse>
            <ellipse id="Oval" fill="#F0C419" cx="35.6896552" cy="14.3793103" rx="7.13793103" ry="7.18965517"></ellipse>
            <ellipse id="Oval" fill="#4FBA6F" cx="57.1034483" cy="14.3793103" rx="7.13793103" ry="7.18965517"></ellipse>
            <rect id="Rectangle" fill="#556080" x="0" y="28.7586207" width="28.5517241" height="110.241379"></rect>
            <g id="Group" transform="translate(7.137931, 40.741379)" fill="#768E9B">
                <path d="M2.37931034,4.79310345 L11.8965517,4.79310345 C13.209931,4.79310345 14.2758621,3.72184483 14.2758621,2.39655172 C14.2758621,1.07125862 13.209931,0 11.8965517,0 L2.37931034,0 C1.06593103,0 0,1.07125862 0,2.39655172 C0,3.72184483 1.06593103,4.79310345 2.37931034,4.79310345 Z" id="Path"></path>
                <path d="M11.8965517,11.9827586 L2.37931034,11.9827586 C1.06593103,11.9827586 0,13.0540172 0,14.3793103 C0,15.7046034 1.06593103,16.7758621 2.37931034,16.7758621 L11.8965517,16.7758621 C13.209931,16.7758621 14.2758621,15.7046034 14.2758621,14.3793103 C14.2758621,13.0540172 13.209931,11.9827586 11.8965517,11.9827586 Z" id="Path"></path>
                <path d="M11.8965517,23.9655172 L2.37931034,23.9655172 C1.06593103,23.9655172 0,25.0367759 0,26.362069 C0,27.6873621 1.06593103,28.7586207 2.37931034,28.7586207 L11.8965517,28.7586207 C13.209931,28.7586207 14.2758621,27.6873621 14.2758621,26.362069 C14.2758621,25.0367759 13.209931,23.9655172 11.8965517,23.9655172 Z" id="Path"></path>
                <path d="M11.8965517,35.9482759 L2.37931034,35.9482759 C1.06593103,35.9482759 0,37.0195345 0,38.3448276 C0,39.6701207 1.06593103,40.7413793 2.37931034,40.7413793 L11.8965517,40.7413793 C13.209931,40.7413793 14.2758621,39.6701207 14.2758621,38.3448276 C14.2758621,37.0195345 13.209931,35.9482759 11.8965517,35.9482759 Z" id="Path"></path>
                <path d="M11.8965517,47.9310345 L2.37931034,47.9310345 C1.06593103,47.9310345 0,49.0022931 0,50.3275862 C0,51.6528793 1.06593103,52.7241379 2.37931034,52.7241379 L11.8965517,52.7241379 C13.209931,52.7241379 14.2758621,51.6528793 14.2758621,50.3275862 C14.2758621,49.0022931 13.209931,47.9310345 11.8965517,47.9310345 Z" id="Path"></path>
                <path d="M11.8965517,59.9137931 L2.37931034,59.9137931 C1.06593103,59.9137931 0,60.9850517 0,62.3103448 C0,63.6356379 1.06593103,64.7068966 2.37931034,64.7068966 L11.8965517,64.7068966 C13.209931,64.7068966 14.2758621,63.6356379 14.2758621,62.3103448 C14.2758621,60.9850517 13.209931,59.9137931 11.8965517,59.9137931 Z" id="Path"></path>
                <path d="M11.8965517,71.8965517 L2.37931034,71.8965517 C1.06593103,71.8965517 0,72.9678103 0,74.2931034 C0,75.6183966 1.06593103,76.6896552 2.37931034,76.6896552 L11.8965517,76.6896552 C13.209931,76.6896552 14.2758621,75.6183966 14.2758621,74.2931034 C14.2758621,72.9678103 13.209931,71.8965517 11.8965517,71.8965517 Z" id="Path"></path>
                <path d="M11.8965517,83.8793103 L2.37931034,83.8793103 C1.06593103,83.8793103 0,84.950569 0,86.2758621 C0,87.6011552 1.06593103,88.6724138 2.37931034,88.6724138 L11.8965517,88.6724138 C13.209931,88.6724138 14.2758621,87.6011552 14.2758621,86.2758621 C14.2758621,84.950569 13.209931,83.8793103 11.8965517,83.8793103 Z" id="Path"></path>
            </g>
            <rect id="Rectangle" fill="#9777A8" x="42.8275862" y="43.137931" width="33.3103448" height="33.5517241"></rect>
            <rect id="Rectangle" fill="#F29C1F" x="90.4137931" y="43.137931" width="33.3103448" height="33.5517241"></rect>
            <rect id="Rectangle" fill="#26B99A" x="42.8275862" y="91.0689655" width="33.3103448" height="33.5517241"></rect>
            <rect id="Rectangle" fill="#ED7161" x="90.4137931" y="91.0689655" width="33.3103448" height="33.5517241"></rect>
        </g>
        <g id="003-browser-2" transform="translate(475.000000, 27.000000)">
            <rect id="Rectangle" fill="#ECF0F1" x="0" y="0" width="138" height="139"></rect>
            <rect id="Rectangle" fill="#546A79" x="0" y="0" width="138" height="28.7586207"></rect>
            <ellipse id="Oval" fill="#ED7161" cx="14.2758621" cy="14.3793103" rx="7.13793103" ry="7.18965517"></ellipse>
            <ellipse id="Oval" fill="#F0C419" cx="35.6896552" cy="14.3793103" rx="7.13793103" ry="7.18965517"></ellipse>
            <ellipse id="Oval" fill="#4FBA6F" cx="57.1034483" cy="14.3793103" rx="7.13793103" ry="7.18965517"></ellipse>
            <rect id="Rectangle" fill="#FFFFFF" x="11.8965517" y="40.7413793" width="114.206897" height="57.5172414"></rect>
            <rect id="Rectangle" fill="#4FBA6F" x="52.3448276" y="79.0862069" width="33.3103448" height="9.5862069"></rect>
            <ellipse id="Oval" fill="#BDC3C7" cx="46.3965517" cy="116.232759" rx="5.94827586" ry="5.99137931"></ellipse>
            <ellipse id="Oval" fill="#BDC3C7" cx="67.8103448" cy="116.232759" rx="5.94827586" ry="5.99137931"></ellipse>
            <ellipse id="Oval" fill="#BDC3C7" cx="89.2241379" cy="116.232759" rx="5.94827586" ry="5.99137931"></ellipse>
            <path d="M96.362069,64.7068966 L41.637931,64.7068966 C40.3245517,64.7068966 39.2586207,63.6332414 39.2586207,62.3103448 C39.2586207,60.9874483 40.3245517,59.9137931 41.637931,59.9137931 L96.362069,59.9137931 C97.6754483,59.9137931 98.7413793,60.9874483 98.7413793,62.3103448 C98.7413793,63.6332414 97.6754483,64.7068966 96.362069,64.7068966 Z" id="Path" fill="#BDC3C7"></path>
            <path d="M86.8448276,55.1206897 L51.1551724,55.1206897 C49.8417931,55.1206897 48.7758621,54.0470345 48.7758621,52.7241379 C48.7758621,51.4012414 49.8417931,50.3275862 51.1551724,50.3275862 L86.8448276,50.3275862 C88.1582069,50.3275862 89.2241379,51.4012414 89.2241379,52.7241379 C89.2241379,54.0470345 88.1582069,55.1206897 86.8448276,55.1206897 Z" id="Path" fill="#BDC3C7"></path>
        </g>
        <g id="left-arrow" transform="translate(203.000000, 172.000000) scale(-1, -1) translate(-203.000000, -172.000000) translate(180.000000, 153.000000)" fill="#D80027">
            <path d="M43.414277,15.4123117 L43.4860818,15.4279338 L12.7049829,15.4279338 L22.381436,5.7827785 C22.8552733,5.31188395 23.115192,4.67398177 23.115192,4.00446346 C23.115192,3.33494514 22.8552733,2.70150642 22.381436,2.229496 L20.8757778,0.731262786 C20.4023145,0.260368235 19.7714041,0 19.0986075,0 C18.4254369,0 17.7941525,0.258508462 17.3206892,0.729403013 L0.733391974,17.2252185 C0.258058744,17.6979728 -0.00185989876,18.327692 1.00195329e-05,18.9975823 C-0.00185989876,19.6711921 0.258058744,20.3012832 0.733391974,20.7732937 L17.3206892,37.270597 C17.7941525,37.7411196 18.4250629,38 19.0986075,38 C19.7714041,38 20.4023145,37.7407476 20.8757778,37.270597 L22.381436,35.7723638 C22.8552733,35.3022131 23.115192,34.6743537 23.115192,34.0048354 C23.115192,33.335689 22.8552733,32.7409336 22.381436,32.270411 L12.5957796,22.5713223 L43.4486835,22.5713223 C44.8350409,22.5713223 46,21.3829273 46,20.0048354 L46,17.8858099 C46,16.5077181 44.8006344,15.4123117 43.414277,15.4123117 Z" id="Path"></path>
        </g>
        <g id="left-arrow" transform="translate(434.000000, 172.000000) scale(-1, -1) translate(-434.000000, -172.000000) translate(411.000000, 153.000000)" fill="#D80027">
            <path d="M43.414277,15.4123117 L43.4860818,15.4279338 L12.7049829,15.4279338 L22.381436,5.7827785 C22.8552733,5.31188395 23.115192,4.67398177 23.115192,4.00446346 C23.115192,3.33494514 22.8552733,2.70150642 22.381436,2.229496 L20.8757778,0.731262786 C20.4023145,0.260368235 19.7714041,0 19.0986075,0 C18.4254369,0 17.7941525,0.258508462 17.3206892,0.729403013 L0.733391974,17.2252185 C0.258058744,17.6979728 -0.00185989876,18.327692 1.00195329e-05,18.9975823 C-0.00185989876,19.6711921 0.258058744,20.3012832 0.733391974,20.7732937 L17.3206892,37.270597 C17.7941525,37.7411196 18.4250629,38 19.0986075,38 C19.7714041,38 20.4023145,37.7407476 20.8757778,37.270597 L22.381436,35.7723638 C22.8552733,35.3022131 23.115192,34.6743537 23.115192,34.0048354 C23.115192,33.335689 22.8552733,32.7409336 22.381436,32.270411 L12.5957796,22.5713223 L43.4486835,22.5713223 C44.8350409,22.5713223 46,21.3829273 46,20.0048354 L46,17.8858099 C46,16.5077181 44.8006344,15.4123117 43.414277,15.4123117 Z" id="Path"></path>
        </g>
    </g>
</svg>