
<svg width="562px" height="352px" viewBox="0 0 562 352" version="1.1" xmlns="http://www.w3.org/2000/svg" xmlns:xlink="http://www.w3.org/1999/xlink">
    <g id="Page-1" stroke="none" stroke-width="1" fill="none" fill-rule="evenodd">
        <rect id="Rectangle" stroke="#979797" fill="#D8D8D8" x="0.5" y="87.5" width="188" height="188"></rect>
        <text id="Приложение" font-family="Helvetica" font-size="19" font-weight="normal" fill="#000000">
            <tspan x="37.2727051" y="190">Приложение</tspan>
        </text>
        <rect id="Rectangle" stroke="#979797" fill="#FFFED0" x="412.5" y="12.5" width="139" height="99"></rect>
        <rect id="Rectangle" stroke="#979797" fill="#EDFFF1" x="412.5" y="132.5" width="139" height="99"></rect>
        <rect id="Rectangle" stroke="#979797" fill="#F0F2FF" x="412.5" y="252.5" width="139" height="99"></rect>
        <path id="Line" d="M404.75185,66.4681457 L189.236932,182.440299 L188.796633,182.677231 L188.322769,181.796633 L188.763068,181.559701 L404.277986,65.5875478 L402.382529,62.0651563 L412.440299,61.7630678 L406.647308,69.9905371 L404.75185,66.4681457 Z" fill="#979797" fill-rule="nonzero"></path>
        <path id="Line-2" d="M403.501142,182.019057 L189.001121,182.499999 L188.501122,182.50112 L188.49888,181.501122 L188.998879,181.500001 L403.4989,181.01906 L403.489932,177.01907 L412.499999,181.498879 L403.510111,186.019047 L403.501142,182.019057 Z" fill="#979797" fill-rule="nonzero"></path>
        <path id="Line-3" d="M404.281106,298.405744 L188.762685,182.190093 L188.322592,181.952778 L188.797222,181.072592 L189.237315,181.309907 L404.755736,297.525558 L406.654253,294.004815 L412.440093,302.237315 L402.382589,301.926487 L404.281106,298.405744 Z" fill="#979797" fill-rule="nonzero"></path>
        <text id="main.js-/main" font-family="Helvetica" font-size="19" font-weight="normal" fill="#000000">
            <tspan x="451.908936" y="63">main.js</tspan>
            <tspan x="458.769531" y="86">/main</tspan>
        </text>
        <text id="chunk_0.js-/some" font-family="Helvetica" font-size="19" font-weight="normal" fill="#000000">
            <tspan x="436.582764" y="183">chunk_0.js</tspan>
            <tspan x="456.130127" y="206">/some</tspan>
        </text>
        <g id="angular" transform="translate(527.000000, 0.000000)">
            <polygon id="Path" fill="#E23237" points="0 6.13260046 17.2674938 0 35 6.02356125 32.1288097 28.7959282 17.2674938 37 2.6386841 28.9049674"></polygon>
            <polygon id="Path" fill="#B52E31" points="35 6.02356125 17 0 17 37 32.085498 28.8096094"></polygon>
            <path d="M17.7406397,4 L7,27.9316704 L11.0123434,27.8633409 L13.1687467,22.4646204 L22.8039882,22.4646204 L25.1650848,27.9316704 L29,28 L17.7406397,4 Z M17.7680418,11.6674537 L21.3982637,19.2664407 L14.5743343,19.2664407 L17.7680418,11.6674537 Z" id="Shape" fill="#FFFFFF" fill-rule="nonzero"></path>
        </g>
        <g id="angular" transform="translate(527.000000, 121.000000)">
            <polygon id="Path" fill="#E23237" points="0 6.13260046 17.2674938 0 35 6.02356125 32.1288097 28.7959282 17.2674938 37 2.6386841 28.9049674"></polygon>
            <polygon id="Path" fill="#B52E31" points="35 6.02356125 17 0 17 37 32.085498 28.8096094"></polygon>
            <path d="M17.7406397,4 L7,27.9316704 L11.0123434,27.8633409 L13.1687467,22.4646204 L22.8039882,22.4646204 L25.1650848,27.9316704 L29,28 L17.7406397,4 Z M17.7680418,11.6674537 L21.3982637,19.2664407 L14.5743343,19.2664407 L17.7680418,11.6674537 Z" id="Shape" fill="#FFFFFF" fill-rule="nonzero"></path>
        </g>
        <g id="angular" transform="translate(527.000000, 241.000000)">
            <polygon id="Path" fill="#E23237" points="0 6.13260046 17.2674938 0 35 6.02356125 32.1288097 28.7959282 17.2674938 37 2.6386841 28.9049674"></polygon>
            <polygon id="Path" fill="#B52E31" points="35 6.02356125 17 0 17 37 32.085498 28.8096094"></polygon>
            <path d="M17.7406397,4 L7,27.9316704 L11.0123434,27.8633409 L13.1687467,22.4646204 L22.8039882,22.4646204 L25.1650848,27.9316704 L29,28 L17.7406397,4 Z M17.7680418,11.6674537 L21.3982637,19.2664407 L14.5743343,19.2664407 L17.7680418,11.6674537 Z" id="Shape" fill="#FFFFFF" fill-rule="nonzero"></path>
        </g>
        <text id="chunk_1.js-/another" font-family="Helvetica" font-size="19" font-weight="normal" fill="#000000">
            <tspan x="436.582764" y="303">chunk_1.js</tspan>
            <tspan x="447.140381" y="326">/another</tspan>
        </text>
    </g>
</svg>