<svg width="976" height="425" viewBox="0 0 976 425" fill="none" xmlns="http://www.w3.org/2000/svg">
<rect x="33" y="276" width="221" height="59" rx="29.5" fill="white"/>
<path d="M85.4102 305.336H83.3359V313H81.0859V295.938H83.3359V303.461H85.0938L91.0586 295.938H93.8594L87.3438 304.211L94.3398 313H91.5859L85.4102 305.336ZM95.1602 306.543C95.1602 305.301 95.4023 304.184 95.8867 303.191C96.3789 302.199 97.0586 301.434 97.9258 300.895C98.8008 300.355 99.7969 300.086 100.914 300.086C102.641 300.086 104.035 300.684 105.098 301.879C106.168 303.074 106.703 304.664 106.703 306.648V306.801C106.703 308.035 106.465 309.145 105.988 310.129C105.52 311.105 104.844 311.867 103.961 312.414C103.086 312.961 102.078 313.234 100.938 313.234C99.2188 313.234 97.8242 312.637 96.7539 311.441C95.6914 310.246 95.1602 308.664 95.1602 306.695V306.543ZM97.3398 306.801C97.3398 308.207 97.6641 309.336 98.3125 310.188C98.9688 311.039 99.8438 311.465 100.938 311.465C102.039 311.465 102.914 311.035 103.562 310.176C104.211 309.309 104.535 308.098 104.535 306.543C104.535 305.152 104.203 304.027 103.539 303.168C102.883 302.301 102.008 301.867 100.914 301.867C99.8438 301.867 98.9805 302.293 98.3242 303.145C97.668 303.996 97.3398 305.215 97.3398 306.801ZM116.723 310.129L121.035 300.32H123.742V313H121.574V303.777L117.473 313H115.973L111.789 303.578V313H109.621V300.32H112.434L116.723 310.129ZM137.605 313H135.438V302.113H129.602V313H127.422V300.32H137.605V313ZM140.512 306.543C140.512 305.301 140.754 304.184 141.238 303.191C141.73 302.199 142.41 301.434 143.277 300.895C144.152 300.355 145.148 300.086 146.266 300.086C147.992 300.086 149.387 300.684 150.449 301.879C151.52 303.074 152.055 304.664 152.055 306.648V306.801C152.055 308.035 151.816 309.145 151.34 310.129C150.871 311.105 150.195 311.867 149.312 312.414C148.438 312.961 147.43 313.234 146.289 313.234C144.57 313.234 143.176 312.637 142.105 311.441C141.043 310.246 140.512 308.664 140.512 306.695V306.543ZM142.691 306.801C142.691 308.207 143.016 309.336 143.664 310.188C144.32 311.039 145.195 311.465 146.289 311.465C147.391 311.465 148.266 311.035 148.914 310.176C149.562 309.309 149.887 308.098 149.887 306.543C149.887 305.152 149.555 304.027 148.891 303.168C148.234 302.301 147.359 301.867 146.266 301.867C145.195 301.867 144.332 302.293 143.676 303.145C143.02 303.996 142.691 305.215 142.691 306.801ZM165.133 313H162.965V307.586H157.141V313H154.961V300.32H157.141V305.816H162.965V300.32H165.133V313ZM173.887 313.234C172.168 313.234 170.77 312.672 169.691 311.547C168.613 310.414 168.074 308.902 168.074 307.012V306.613C168.074 305.355 168.312 304.234 168.789 303.25C169.273 302.258 169.945 301.484 170.805 300.93C171.672 300.367 172.609 300.086 173.617 300.086C175.266 300.086 176.547 300.629 177.461 301.715C178.375 302.801 178.832 304.355 178.832 306.379V307.281H170.242C170.273 308.531 170.637 309.543 171.332 310.316C172.035 311.082 172.926 311.465 174.004 311.465C174.77 311.465 175.418 311.309 175.949 310.996C176.48 310.684 176.945 310.27 177.344 309.754L178.668 310.785C177.605 312.418 176.012 313.234 173.887 313.234ZM173.617 301.867C172.742 301.867 172.008 302.188 171.414 302.828C170.82 303.461 170.453 304.352 170.312 305.5H176.664V305.336C176.602 304.234 176.305 303.383 175.773 302.781C175.242 302.172 174.523 301.867 173.617 301.867ZM191.711 313H189.543V307.586H183.719V313H181.539V300.32H183.719V305.816H189.543V300.32H191.711V313ZM204.625 302.078H200.371V313H198.203V302.078H194.031V300.32H204.625V302.078Z" fill="black"/>
<rect y="366" width="140" height="59" rx="29.5" fill="white"/>
<path d="M29.3242 383.938V399.16H35.1953V383.938H37.4336V399.16H43.2695V383.938H45.5195V401H27.0625V383.938H29.3242ZM57.0625 401C56.9375 400.75 56.8359 400.305 56.7578 399.664C55.75 400.711 54.5469 401.234 53.1484 401.234C51.8984 401.234 50.8711 400.883 50.0664 400.18C49.2695 399.469 48.8711 398.57 48.8711 397.484C48.8711 396.164 49.3711 395.141 50.3711 394.414C51.3789 393.68 52.793 393.312 54.6133 393.312H56.7227V392.316C56.7227 391.559 56.4961 390.957 56.043 390.512C55.5898 390.059 54.9219 389.832 54.0391 389.832C53.2656 389.832 52.6172 390.027 52.0938 390.418C51.5703 390.809 51.3086 391.281 51.3086 391.836H49.1289C49.1289 391.203 49.3516 390.594 49.7969 390.008C50.25 389.414 50.8594 388.945 51.625 388.602C52.3984 388.258 53.2461 388.086 54.168 388.086C55.6289 388.086 56.7734 388.453 57.6016 389.188C58.4297 389.914 58.8594 390.918 58.8906 392.199V398.035C58.8906 399.199 59.0391 400.125 59.3359 400.812V401H57.0625ZM53.4648 399.348C54.1445 399.348 54.7891 399.172 55.3984 398.82C56.0078 398.469 56.4492 398.012 56.7227 397.449V394.848H55.0234C52.3672 394.848 51.0391 395.625 51.0391 397.18C51.0391 397.859 51.2656 398.391 51.7188 398.773C52.1719 399.156 52.7539 399.348 53.4648 399.348ZM67.8555 389.047C69.4492 389.047 70.7227 389.582 71.6758 390.652C72.6367 391.715 73.1172 393.117 73.1172 394.859V395.059C73.1172 396.254 72.8867 397.324 72.4258 398.27C71.9648 399.207 71.3008 399.938 70.4336 400.461C69.5742 400.977 68.582 401.234 67.457 401.234C65.7539 401.234 64.3828 400.668 63.3438 399.535C62.3047 398.395 61.7852 396.867 61.7852 394.953V393.898C61.7852 391.234 62.2773 389.117 63.2617 387.547C64.2539 385.977 65.7148 385.02 67.6445 384.676C68.7383 384.48 69.4766 384.242 69.8594 383.961C70.2422 383.68 70.4336 383.293 70.4336 382.801H72.2148C72.2148 383.777 71.9922 384.539 71.5469 385.086C71.1094 385.633 70.4062 386.02 69.4375 386.246L67.8203 386.609C66.5312 386.914 65.5625 387.43 64.9141 388.156C64.2734 388.875 63.8555 389.836 63.6602 391.039C64.8086 389.711 66.207 389.047 67.8555 389.047ZM67.4336 390.828C66.3711 390.828 65.5273 391.188 64.9023 391.906C64.2773 392.617 63.9648 393.605 63.9648 394.871V395.059C63.9648 396.418 64.2773 397.496 64.9023 398.293C65.5352 399.082 66.3867 399.477 67.457 399.477C68.5352 399.477 69.3867 399.078 70.0117 398.281C70.6367 397.484 70.9492 396.32 70.9492 394.789C70.9492 393.594 70.6328 392.637 70 391.918C69.375 391.191 68.5195 390.828 67.4336 390.828ZM85.9492 388.32V401H83.7695V390.113H79.457L79.1992 394.859C79.0586 397.039 78.6914 398.598 78.0977 399.535C77.5117 400.473 76.5781 400.961 75.2969 401H74.4297V399.09L75.0508 399.043C75.7539 398.965 76.2578 398.559 76.5625 397.824C76.8672 397.09 77.0625 395.73 77.1484 393.746L77.3828 388.32H85.9492ZM88.8555 394.543C88.8555 393.301 89.0977 392.184 89.582 391.191C90.0742 390.199 90.7539 389.434 91.6211 388.895C92.4961 388.355 93.4922 388.086 94.6094 388.086C96.3359 388.086 97.7305 388.684 98.793 389.879C99.8633 391.074 100.398 392.664 100.398 394.648V394.801C100.398 396.035 100.16 397.145 99.6836 398.129C99.2148 399.105 98.5391 399.867 97.6562 400.414C96.7812 400.961 95.7734 401.234 94.6328 401.234C92.9141 401.234 91.5195 400.637 90.4492 399.441C89.3867 398.246 88.8555 396.664 88.8555 394.695V394.543ZM91.0352 394.801C91.0352 396.207 91.3594 397.336 92.0078 398.188C92.6641 399.039 93.5391 399.465 94.6328 399.465C95.7344 399.465 96.6094 399.035 97.2578 398.176C97.9062 397.309 98.2305 396.098 98.2305 394.543C98.2305 393.152 97.8984 392.027 97.2344 391.168C96.5781 390.301 95.7031 389.867 94.6094 389.867C93.5391 389.867 92.6758 390.293 92.0195 391.145C91.3633 391.996 91.0352 393.215 91.0352 394.801ZM113.477 401H111.309V395.586H105.484V401H103.305V388.32H105.484V393.816H111.309V388.32H113.477V401Z" fill="black"/>
<rect x="165" y="366" width="122" height="59" rx="29.5" fill="white"/>
<path d="M202.531 395.586C202.32 397.391 201.652 398.785 200.527 399.77C199.41 400.746 197.922 401.234 196.062 401.234C194.047 401.234 192.43 400.512 191.211 399.066C190 397.621 189.395 395.688 189.395 393.266V391.625C189.395 390.039 189.676 388.645 190.238 387.441C190.809 386.238 191.613 385.316 192.652 384.676C193.691 384.027 194.895 383.703 196.262 383.703C198.074 383.703 199.527 384.211 200.621 385.227C201.715 386.234 202.352 387.633 202.531 389.422H200.27C200.074 388.062 199.648 387.078 198.992 386.469C198.344 385.859 197.434 385.555 196.262 385.555C194.824 385.555 193.695 386.086 192.875 387.148C192.062 388.211 191.656 389.723 191.656 391.684V393.336C191.656 395.188 192.043 396.66 192.816 397.754C193.59 398.848 194.672 399.395 196.062 399.395C197.312 399.395 198.27 399.113 198.934 398.551C199.605 397.98 200.051 396.992 200.27 395.586H202.531ZM214.695 390.078H210.441V401H208.273V390.078H204.102V388.32H214.695V390.078ZM225.008 388.32H227.176V401H225.008V391.754L219.16 401H216.992V388.32H219.16V397.578L225.008 388.32ZM241.051 388.32V401H238.871V390.113H234.559L234.301 394.859C234.16 397.039 233.793 398.598 233.199 399.535C232.613 400.473 231.68 400.961 230.398 401H229.531V399.09L230.152 399.043C230.855 398.965 231.359 398.559 231.664 397.824C231.969 397.09 232.164 395.73 232.25 393.746L232.484 388.32H241.051ZM252.734 388.32H254.902V401H252.734V391.754L246.887 401H244.719V388.32H246.887V397.578L252.734 388.32Z" fill="black"/>
<path d="M69.6139 361.382C69.5679 361.655 69.7513 361.913 70.0236 361.959L74.4608 362.708C74.7331 362.754 74.9911 362.57 75.0371 362.298C75.0831 362.026 74.8996 361.768 74.6273 361.722L70.6831 361.056L71.349 357.112C71.395 356.839 71.2115 356.581 70.9392 356.535C70.667 356.489 70.409 356.673 70.363 356.945L69.6139 361.382ZM102.68 337.689L69.8171 361.058L70.3966 361.873L103.259 338.504L102.68 337.689Z" fill="#FF0000"/>
<path d="M217.386 361.382C217.432 361.655 217.249 361.913 216.976 361.959L212.539 362.708C212.267 362.754 212.009 362.57 211.963 362.298C211.917 362.026 212.1 361.768 212.373 361.722L216.317 361.056L215.651 357.112C215.605 356.839 215.788 356.581 216.061 356.535C216.333 356.489 216.591 356.673 216.637 356.945L217.386 361.382ZM184.32 337.689L217.183 361.058L216.603 361.873L183.741 338.504L184.32 337.689Z" fill="#FF0000"/>
<rect x="378" y="276" width="221" height="59" rx="29.5" fill="white"/>
<path d="M430.41 305.336H428.336V313H426.086V295.938H428.336V303.461H430.094L436.059 295.938H438.859L432.344 304.211L439.34 313H436.586L430.41 305.336ZM440.16 306.543C440.16 305.301 440.402 304.184 440.887 303.191C441.379 302.199 442.059 301.434 442.926 300.895C443.801 300.355 444.797 300.086 445.914 300.086C447.641 300.086 449.035 300.684 450.098 301.879C451.168 303.074 451.703 304.664 451.703 306.648V306.801C451.703 308.035 451.465 309.145 450.988 310.129C450.52 311.105 449.844 311.867 448.961 312.414C448.086 312.961 447.078 313.234 445.938 313.234C444.219 313.234 442.824 312.637 441.754 311.441C440.691 310.246 440.16 308.664 440.16 306.695V306.543ZM442.34 306.801C442.34 308.207 442.664 309.336 443.312 310.188C443.969 311.039 444.844 311.465 445.938 311.465C447.039 311.465 447.914 311.035 448.562 310.176C449.211 309.309 449.535 308.098 449.535 306.543C449.535 305.152 449.203 304.027 448.539 303.168C447.883 302.301 447.008 301.867 445.914 301.867C444.844 301.867 443.98 302.293 443.324 303.145C442.668 303.996 442.34 305.215 442.34 306.801ZM461.723 310.129L466.035 300.32H468.742V313H466.574V303.777L462.473 313H460.973L456.789 303.578V313H454.621V300.32H457.434L461.723 310.129ZM482.605 313H480.438V302.113H474.602V313H472.422V300.32H482.605V313ZM485.512 306.543C485.512 305.301 485.754 304.184 486.238 303.191C486.73 302.199 487.41 301.434 488.277 300.895C489.152 300.355 490.148 300.086 491.266 300.086C492.992 300.086 494.387 300.684 495.449 301.879C496.52 303.074 497.055 304.664 497.055 306.648V306.801C497.055 308.035 496.816 309.145 496.34 310.129C495.871 311.105 495.195 311.867 494.312 312.414C493.438 312.961 492.43 313.234 491.289 313.234C489.57 313.234 488.176 312.637 487.105 311.441C486.043 310.246 485.512 308.664 485.512 306.695V306.543ZM487.691 306.801C487.691 308.207 488.016 309.336 488.664 310.188C489.32 311.039 490.195 311.465 491.289 311.465C492.391 311.465 493.266 311.035 493.914 310.176C494.562 309.309 494.887 308.098 494.887 306.543C494.887 305.152 494.555 304.027 493.891 303.168C493.234 302.301 492.359 301.867 491.266 301.867C490.195 301.867 489.332 302.293 488.676 303.145C488.02 303.996 487.691 305.215 487.691 306.801ZM510.133 313H507.965V307.586H502.141V313H499.961V300.32H502.141V305.816H507.965V300.32H510.133V313ZM518.887 313.234C517.168 313.234 515.77 312.672 514.691 311.547C513.613 310.414 513.074 308.902 513.074 307.012V306.613C513.074 305.355 513.312 304.234 513.789 303.25C514.273 302.258 514.945 301.484 515.805 300.93C516.672 300.367 517.609 300.086 518.617 300.086C520.266 300.086 521.547 300.629 522.461 301.715C523.375 302.801 523.832 304.355 523.832 306.379V307.281H515.242C515.273 308.531 515.637 309.543 516.332 310.316C517.035 311.082 517.926 311.465 519.004 311.465C519.77 311.465 520.418 311.309 520.949 310.996C521.48 310.684 521.945 310.27 522.344 309.754L523.668 310.785C522.605 312.418 521.012 313.234 518.887 313.234ZM518.617 301.867C517.742 301.867 517.008 302.188 516.414 302.828C515.82 303.461 515.453 304.352 515.312 305.5H521.664V305.336C521.602 304.234 521.305 303.383 520.773 302.781C520.242 302.172 519.523 301.867 518.617 301.867ZM536.711 313H534.543V307.586H528.719V313H526.539V300.32H528.719V305.816H534.543V300.32H536.711V313ZM549.625 302.078H545.371V313H543.203V302.078H539.031V300.32H549.625V302.078Z" fill="black"/>
<rect x="345" y="366" width="140" height="59" rx="29.5" fill="white"/>
<path d="M374.324 383.938V399.16H380.195V383.938H382.434V399.16H388.27V383.938H390.52V401H372.062V383.938H374.324ZM402.062 401C401.938 400.75 401.836 400.305 401.758 399.664C400.75 400.711 399.547 401.234 398.148 401.234C396.898 401.234 395.871 400.883 395.066 400.18C394.27 399.469 393.871 398.57 393.871 397.484C393.871 396.164 394.371 395.141 395.371 394.414C396.379 393.68 397.793 393.312 399.613 393.312H401.723V392.316C401.723 391.559 401.496 390.957 401.043 390.512C400.59 390.059 399.922 389.832 399.039 389.832C398.266 389.832 397.617 390.027 397.094 390.418C396.57 390.809 396.309 391.281 396.309 391.836H394.129C394.129 391.203 394.352 390.594 394.797 390.008C395.25 389.414 395.859 388.945 396.625 388.602C397.398 388.258 398.246 388.086 399.168 388.086C400.629 388.086 401.773 388.453 402.602 389.188C403.43 389.914 403.859 390.918 403.891 392.199V398.035C403.891 399.199 404.039 400.125 404.336 400.812V401H402.062ZM398.465 399.348C399.145 399.348 399.789 399.172 400.398 398.82C401.008 398.469 401.449 398.012 401.723 397.449V394.848H400.023C397.367 394.848 396.039 395.625 396.039 397.18C396.039 397.859 396.266 398.391 396.719 398.773C397.172 399.156 397.754 399.348 398.465 399.348ZM412.855 389.047C414.449 389.047 415.723 389.582 416.676 390.652C417.637 391.715 418.117 393.117 418.117 394.859V395.059C418.117 396.254 417.887 397.324 417.426 398.27C416.965 399.207 416.301 399.938 415.434 400.461C414.574 400.977 413.582 401.234 412.457 401.234C410.754 401.234 409.383 400.668 408.344 399.535C407.305 398.395 406.785 396.867 406.785 394.953V393.898C406.785 391.234 407.277 389.117 408.262 387.547C409.254 385.977 410.715 385.02 412.645 384.676C413.738 384.48 414.477 384.242 414.859 383.961C415.242 383.68 415.434 383.293 415.434 382.801H417.215C417.215 383.777 416.992 384.539 416.547 385.086C416.109 385.633 415.406 386.02 414.438 386.246L412.82 386.609C411.531 386.914 410.562 387.43 409.914 388.156C409.273 388.875 408.855 389.836 408.66 391.039C409.809 389.711 411.207 389.047 412.855 389.047ZM412.434 390.828C411.371 390.828 410.527 391.188 409.902 391.906C409.277 392.617 408.965 393.605 408.965 394.871V395.059C408.965 396.418 409.277 397.496 409.902 398.293C410.535 399.082 411.387 399.477 412.457 399.477C413.535 399.477 414.387 399.078 415.012 398.281C415.637 397.484 415.949 396.32 415.949 394.789C415.949 393.594 415.633 392.637 415 391.918C414.375 391.191 413.52 390.828 412.434 390.828ZM430.949 388.32V401H428.77V390.113H424.457L424.199 394.859C424.059 397.039 423.691 398.598 423.098 399.535C422.512 400.473 421.578 400.961 420.297 401H419.43V399.09L420.051 399.043C420.754 398.965 421.258 398.559 421.562 397.824C421.867 397.09 422.062 395.73 422.148 393.746L422.383 388.32H430.949ZM433.855 394.543C433.855 393.301 434.098 392.184 434.582 391.191C435.074 390.199 435.754 389.434 436.621 388.895C437.496 388.355 438.492 388.086 439.609 388.086C441.336 388.086 442.73 388.684 443.793 389.879C444.863 391.074 445.398 392.664 445.398 394.648V394.801C445.398 396.035 445.16 397.145 444.684 398.129C444.215 399.105 443.539 399.867 442.656 400.414C441.781 400.961 440.773 401.234 439.633 401.234C437.914 401.234 436.52 400.637 435.449 399.441C434.387 398.246 433.855 396.664 433.855 394.695V394.543ZM436.035 394.801C436.035 396.207 436.359 397.336 437.008 398.188C437.664 399.039 438.539 399.465 439.633 399.465C440.734 399.465 441.609 399.035 442.258 398.176C442.906 397.309 443.23 396.098 443.23 394.543C443.23 393.152 442.898 392.027 442.234 391.168C441.578 390.301 440.703 389.867 439.609 389.867C438.539 389.867 437.676 390.293 437.02 391.145C436.363 391.996 436.035 393.215 436.035 394.801ZM458.477 401H456.309V395.586H450.484V401H448.305V388.32H450.484V393.816H456.309V388.32H458.477V401Z" fill="black"/>
<rect x="510" y="366" width="122" height="59" rx="29.5" fill="white"/>
<path d="M547.531 395.586C547.32 397.391 546.652 398.785 545.527 399.77C544.41 400.746 542.922 401.234 541.062 401.234C539.047 401.234 537.43 400.512 536.211 399.066C535 397.621 534.395 395.688 534.395 393.266V391.625C534.395 390.039 534.676 388.645 535.238 387.441C535.809 386.238 536.613 385.316 537.652 384.676C538.691 384.027 539.895 383.703 541.262 383.703C543.074 383.703 544.527 384.211 545.621 385.227C546.715 386.234 547.352 387.633 547.531 389.422H545.27C545.074 388.062 544.648 387.078 543.992 386.469C543.344 385.859 542.434 385.555 541.262 385.555C539.824 385.555 538.695 386.086 537.875 387.148C537.062 388.211 536.656 389.723 536.656 391.684V393.336C536.656 395.188 537.043 396.66 537.816 397.754C538.59 398.848 539.672 399.395 541.062 399.395C542.312 399.395 543.27 399.113 543.934 398.551C544.605 397.98 545.051 396.992 545.27 395.586H547.531ZM559.695 390.078H555.441V401H553.273V390.078H549.102V388.32H559.695V390.078ZM570.008 388.32H572.176V401H570.008V391.754L564.16 401H561.992V388.32H564.16V397.578L570.008 388.32ZM586.051 388.32V401H583.871V390.113H579.559L579.301 394.859C579.16 397.039 578.793 398.598 578.199 399.535C577.613 400.473 576.68 400.961 575.398 401H574.531V399.09L575.152 399.043C575.855 398.965 576.359 398.559 576.664 397.824C576.969 397.09 577.164 395.73 577.25 393.746L577.484 388.32H586.051ZM597.734 388.32H599.902V401H597.734V391.754L591.887 401H589.719V388.32H591.887V397.578L597.734 388.32Z" fill="black"/>
<path d="M414.614 361.382C414.568 361.655 414.751 361.913 415.024 361.959L419.461 362.708C419.733 362.754 419.991 362.57 420.037 362.298C420.083 362.026 419.9 361.768 419.627 361.722L415.683 361.056L416.349 357.112C416.395 356.839 416.212 356.581 415.939 356.535C415.667 356.489 415.409 356.673 415.363 356.945L414.614 361.382ZM447.68 337.689L414.817 361.058L415.397 361.873L448.259 338.504L447.68 337.689Z" fill="#FF0000"/>
<path d="M562.386 361.382C562.432 361.655 562.249 361.913 561.976 361.959L557.539 362.708C557.267 362.754 557.009 362.57 556.963 362.298C556.917 362.026 557.1 361.768 557.373 361.722L561.317 361.056L560.651 357.112C560.605 356.839 560.788 356.581 561.061 356.535C561.333 356.489 561.591 356.673 561.637 356.945L562.386 361.382ZM529.32 337.689L562.183 361.058L561.603 361.873L528.741 338.504L529.32 337.689Z" fill="#FF0000"/>
<rect x="722" y="276" width="221" height="59" rx="29.5" fill="white"/>
<path d="M774.41 305.336H772.336V313H770.086V295.938H772.336V303.461H774.094L780.059 295.938H782.859L776.344 304.211L783.34 313H780.586L774.41 305.336ZM784.16 306.543C784.16 305.301 784.402 304.184 784.887 303.191C785.379 302.199 786.059 301.434 786.926 300.895C787.801 300.355 788.797 300.086 789.914 300.086C791.641 300.086 793.035 300.684 794.098 301.879C795.168 303.074 795.703 304.664 795.703 306.648V306.801C795.703 308.035 795.465 309.145 794.988 310.129C794.52 311.105 793.844 311.867 792.961 312.414C792.086 312.961 791.078 313.234 789.938 313.234C788.219 313.234 786.824 312.637 785.754 311.441C784.691 310.246 784.16 308.664 784.16 306.695V306.543ZM786.34 306.801C786.34 308.207 786.664 309.336 787.312 310.188C787.969 311.039 788.844 311.465 789.938 311.465C791.039 311.465 791.914 311.035 792.562 310.176C793.211 309.309 793.535 308.098 793.535 306.543C793.535 305.152 793.203 304.027 792.539 303.168C791.883 302.301 791.008 301.867 789.914 301.867C788.844 301.867 787.98 302.293 787.324 303.145C786.668 303.996 786.34 305.215 786.34 306.801ZM805.723 310.129L810.035 300.32H812.742V313H810.574V303.777L806.473 313H804.973L800.789 303.578V313H798.621V300.32H801.434L805.723 310.129ZM826.605 313H824.438V302.113H818.602V313H816.422V300.32H826.605V313ZM829.512 306.543C829.512 305.301 829.754 304.184 830.238 303.191C830.73 302.199 831.41 301.434 832.277 300.895C833.152 300.355 834.148 300.086 835.266 300.086C836.992 300.086 838.387 300.684 839.449 301.879C840.52 303.074 841.055 304.664 841.055 306.648V306.801C841.055 308.035 840.816 309.145 840.34 310.129C839.871 311.105 839.195 311.867 838.312 312.414C837.438 312.961 836.43 313.234 835.289 313.234C833.57 313.234 832.176 312.637 831.105 311.441C830.043 310.246 829.512 308.664 829.512 306.695V306.543ZM831.691 306.801C831.691 308.207 832.016 309.336 832.664 310.188C833.32 311.039 834.195 311.465 835.289 311.465C836.391 311.465 837.266 311.035 837.914 310.176C838.562 309.309 838.887 308.098 838.887 306.543C838.887 305.152 838.555 304.027 837.891 303.168C837.234 302.301 836.359 301.867 835.266 301.867C834.195 301.867 833.332 302.293 832.676 303.145C832.02 303.996 831.691 305.215 831.691 306.801ZM854.133 313H851.965V307.586H846.141V313H843.961V300.32H846.141V305.816H851.965V300.32H854.133V313ZM862.887 313.234C861.168 313.234 859.77 312.672 858.691 311.547C857.613 310.414 857.074 308.902 857.074 307.012V306.613C857.074 305.355 857.312 304.234 857.789 303.25C858.273 302.258 858.945 301.484 859.805 300.93C860.672 300.367 861.609 300.086 862.617 300.086C864.266 300.086 865.547 300.629 866.461 301.715C867.375 302.801 867.832 304.355 867.832 306.379V307.281H859.242C859.273 308.531 859.637 309.543 860.332 310.316C861.035 311.082 861.926 311.465 863.004 311.465C863.77 311.465 864.418 311.309 864.949 310.996C865.48 310.684 865.945 310.27 866.344 309.754L867.668 310.785C866.605 312.418 865.012 313.234 862.887 313.234ZM862.617 301.867C861.742 301.867 861.008 302.188 860.414 302.828C859.82 303.461 859.453 304.352 859.312 305.5H865.664V305.336C865.602 304.234 865.305 303.383 864.773 302.781C864.242 302.172 863.523 301.867 862.617 301.867ZM880.711 313H878.543V307.586H872.719V313H870.539V300.32H872.719V305.816H878.543V300.32H880.711V313ZM893.625 302.078H889.371V313H887.203V302.078H883.031V300.32H893.625V302.078Z" fill="black"/>
<rect x="689" y="366" width="140" height="59" rx="29.5" fill="white"/>
<path d="M718.324 383.938V399.16H724.195V383.938H726.434V399.16H732.27V383.938H734.52V401H716.062V383.938H718.324ZM746.062 401C745.938 400.75 745.836 400.305 745.758 399.664C744.75 400.711 743.547 401.234 742.148 401.234C740.898 401.234 739.871 400.883 739.066 400.18C738.27 399.469 737.871 398.57 737.871 397.484C737.871 396.164 738.371 395.141 739.371 394.414C740.379 393.68 741.793 393.312 743.613 393.312H745.723V392.316C745.723 391.559 745.496 390.957 745.043 390.512C744.59 390.059 743.922 389.832 743.039 389.832C742.266 389.832 741.617 390.027 741.094 390.418C740.57 390.809 740.309 391.281 740.309 391.836H738.129C738.129 391.203 738.352 390.594 738.797 390.008C739.25 389.414 739.859 388.945 740.625 388.602C741.398 388.258 742.246 388.086 743.168 388.086C744.629 388.086 745.773 388.453 746.602 389.188C747.43 389.914 747.859 390.918 747.891 392.199V398.035C747.891 399.199 748.039 400.125 748.336 400.812V401H746.062ZM742.465 399.348C743.145 399.348 743.789 399.172 744.398 398.82C745.008 398.469 745.449 398.012 745.723 397.449V394.848H744.023C741.367 394.848 740.039 395.625 740.039 397.18C740.039 397.859 740.266 398.391 740.719 398.773C741.172 399.156 741.754 399.348 742.465 399.348ZM756.855 389.047C758.449 389.047 759.723 389.582 760.676 390.652C761.637 391.715 762.117 393.117 762.117 394.859V395.059C762.117 396.254 761.887 397.324 761.426 398.27C760.965 399.207 760.301 399.938 759.434 400.461C758.574 400.977 757.582 401.234 756.457 401.234C754.754 401.234 753.383 400.668 752.344 399.535C751.305 398.395 750.785 396.867 750.785 394.953V393.898C750.785 391.234 751.277 389.117 752.262 387.547C753.254 385.977 754.715 385.02 756.645 384.676C757.738 384.48 758.477 384.242 758.859 383.961C759.242 383.68 759.434 383.293 759.434 382.801H761.215C761.215 383.777 760.992 384.539 760.547 385.086C760.109 385.633 759.406 386.02 758.438 386.246L756.82 386.609C755.531 386.914 754.562 387.43 753.914 388.156C753.273 388.875 752.855 389.836 752.66 391.039C753.809 389.711 755.207 389.047 756.855 389.047ZM756.434 390.828C755.371 390.828 754.527 391.188 753.902 391.906C753.277 392.617 752.965 393.605 752.965 394.871V395.059C752.965 396.418 753.277 397.496 753.902 398.293C754.535 399.082 755.387 399.477 756.457 399.477C757.535 399.477 758.387 399.078 759.012 398.281C759.637 397.484 759.949 396.32 759.949 394.789C759.949 393.594 759.633 392.637 759 391.918C758.375 391.191 757.52 390.828 756.434 390.828ZM774.949 388.32V401H772.77V390.113H768.457L768.199 394.859C768.059 397.039 767.691 398.598 767.098 399.535C766.512 400.473 765.578 400.961 764.297 401H763.43V399.09L764.051 399.043C764.754 398.965 765.258 398.559 765.562 397.824C765.867 397.09 766.062 395.73 766.148 393.746L766.383 388.32H774.949ZM777.855 394.543C777.855 393.301 778.098 392.184 778.582 391.191C779.074 390.199 779.754 389.434 780.621 388.895C781.496 388.355 782.492 388.086 783.609 388.086C785.336 388.086 786.73 388.684 787.793 389.879C788.863 391.074 789.398 392.664 789.398 394.648V394.801C789.398 396.035 789.16 397.145 788.684 398.129C788.215 399.105 787.539 399.867 786.656 400.414C785.781 400.961 784.773 401.234 783.633 401.234C781.914 401.234 780.52 400.637 779.449 399.441C778.387 398.246 777.855 396.664 777.855 394.695V394.543ZM780.035 394.801C780.035 396.207 780.359 397.336 781.008 398.188C781.664 399.039 782.539 399.465 783.633 399.465C784.734 399.465 785.609 399.035 786.258 398.176C786.906 397.309 787.23 396.098 787.23 394.543C787.23 393.152 786.898 392.027 786.234 391.168C785.578 390.301 784.703 389.867 783.609 389.867C782.539 389.867 781.676 390.293 781.02 391.145C780.363 391.996 780.035 393.215 780.035 394.801ZM802.477 401H800.309V395.586H794.484V401H792.305V388.32H794.484V393.816H800.309V388.32H802.477V401Z" fill="black"/>
<rect x="854" y="366" width="122" height="59" rx="29.5" fill="white"/>
<path d="M891.531 395.586C891.32 397.391 890.652 398.785 889.527 399.77C888.41 400.746 886.922 401.234 885.062 401.234C883.047 401.234 881.43 400.512 880.211 399.066C879 397.621 878.395 395.688 878.395 393.266V391.625C878.395 390.039 878.676 388.645 879.238 387.441C879.809 386.238 880.613 385.316 881.652 384.676C882.691 384.027 883.895 383.703 885.262 383.703C887.074 383.703 888.527 384.211 889.621 385.227C890.715 386.234 891.352 387.633 891.531 389.422H889.27C889.074 388.062 888.648 387.078 887.992 386.469C887.344 385.859 886.434 385.555 885.262 385.555C883.824 385.555 882.695 386.086 881.875 387.148C881.062 388.211 880.656 389.723 880.656 391.684V393.336C880.656 395.188 881.043 396.66 881.816 397.754C882.59 398.848 883.672 399.395 885.062 399.395C886.312 399.395 887.27 399.113 887.934 398.551C888.605 397.98 889.051 396.992 889.27 395.586H891.531ZM903.695 390.078H899.441V401H897.273V390.078H893.102V388.32H903.695V390.078ZM914.008 388.32H916.176V401H914.008V391.754L908.16 401H905.992V388.32H908.16V397.578L914.008 388.32ZM930.051 388.32V401H927.871V390.113H923.559L923.301 394.859C923.16 397.039 922.793 398.598 922.199 399.535C921.613 400.473 920.68 400.961 919.398 401H918.531V399.09L919.152 399.043C919.855 398.965 920.359 398.559 920.664 397.824C920.969 397.09 921.164 395.73 921.25 393.746L921.484 388.32H930.051ZM941.734 388.32H943.902V401H941.734V391.754L935.887 401H933.719V388.32H935.887V397.578L941.734 388.32Z" fill="black"/>
<path d="M758.614 361.382C758.568 361.655 758.751 361.913 759.024 361.959L763.461 362.708C763.733 362.754 763.991 362.57 764.037 362.298C764.083 362.026 763.9 361.768 763.627 361.722L759.683 361.056L760.349 357.112C760.395 356.839 760.212 356.581 759.939 356.535C759.667 356.489 759.409 356.673 759.363 356.945L758.614 361.382ZM791.68 337.689L758.817 361.058L759.397 361.873L792.259 338.504L791.68 337.689Z" fill="#FF0000"/>
<path d="M906.386 361.382C906.432 361.655 906.249 361.913 905.976 361.959L901.539 362.708C901.267 362.754 901.009 362.57 900.963 362.298C900.917 362.026 901.1 361.768 901.373 361.722L905.317 361.056L904.651 357.112C904.605 356.839 904.788 356.581 905.061 356.535C905.333 356.489 905.591 356.673 905.637 356.945L906.386 361.382ZM873.32 337.689L906.183 361.058L905.603 361.873L872.741 338.504L873.32 337.689Z" fill="#FF0000"/>
<rect x="377" y="143" width="221" height="59" rx="29.5" fill="white"/>
<path d="M426.887 162.938L432.465 176.859L438.043 162.938H440.961V180H438.711V173.355L438.922 166.184L433.32 180H431.598L426.008 166.219L426.23 173.355V180H423.98V162.938H426.887ZM444.02 173.543C444.02 172.301 444.262 171.184 444.746 170.191C445.238 169.199 445.918 168.434 446.785 167.895C447.66 167.355 448.656 167.086 449.773 167.086C451.5 167.086 452.895 167.684 453.957 168.879C455.027 170.074 455.562 171.664 455.562 173.648V173.801C455.562 175.035 455.324 176.145 454.848 177.129C454.379 178.105 453.703 178.867 452.82 179.414C451.945 179.961 450.938 180.234 449.797 180.234C448.078 180.234 446.684 179.637 445.613 178.441C444.551 177.246 444.02 175.664 444.02 173.695V173.543ZM446.199 173.801C446.199 175.207 446.523 176.336 447.172 177.188C447.828 178.039 448.703 178.465 449.797 178.465C450.898 178.465 451.773 178.035 452.422 177.176C453.07 176.309 453.395 175.098 453.395 173.543C453.395 172.152 453.062 171.027 452.398 170.168C451.742 169.301 450.867 168.867 449.773 168.867C448.703 168.867 447.84 169.293 447.184 170.145C446.527 170.996 446.199 172.215 446.199 173.801ZM457.332 178.23L458.082 177.305C458.926 176.211 459.406 174.57 459.523 172.383L459.723 167.32H467.891V178.23H469.52V183.727H467.352V180H458.504V183.727H456.336L456.348 178.23H457.332ZM459.898 178.23H465.723V169.324H461.82L461.691 172.348C461.559 174.871 460.961 176.832 459.898 178.23ZM476.07 176.824L479.023 167.32H481.344L476.246 181.957C475.457 184.066 474.203 185.121 472.484 185.121L472.074 185.086L471.266 184.934V183.176L471.852 183.223C472.586 183.223 473.156 183.074 473.562 182.777C473.977 182.48 474.316 181.938 474.582 181.148L475.062 179.859L470.539 167.32H472.906L476.07 176.824ZM493.191 167.32V180H491.012V169.113H486.699L486.441 173.859C486.301 176.039 485.934 177.598 485.34 178.535C484.754 179.473 483.82 179.961 482.539 180H481.672V178.09L482.293 178.043C482.996 177.965 483.5 177.559 483.805 176.824C484.109 176.09 484.305 174.73 484.391 172.746L484.625 167.32H493.191ZM499.039 171.691H502.332C503.77 171.707 504.906 172.082 505.742 172.816C506.578 173.551 506.996 174.547 506.996 175.805C506.996 177.07 506.566 178.086 505.707 178.852C504.848 179.617 503.691 180 502.238 180H496.871V167.32H499.039V171.691ZM499.039 173.461V178.23H502.262C503.074 178.23 503.703 178.023 504.148 177.609C504.594 177.188 504.816 176.613 504.816 175.887C504.816 175.184 504.598 174.609 504.16 174.164C503.73 173.711 503.125 173.477 502.344 173.461H499.039ZM536.938 175.172H529.73V173.508H536.938V175.172ZM529.309 166.793C529.309 165.582 529.672 164.605 530.398 163.863C531.125 163.121 532.098 162.75 533.316 162.75C534.535 162.75 535.508 163.117 536.234 163.852C536.969 164.578 537.336 165.578 537.336 166.852V167.941C537.336 169.168 536.973 170.145 536.246 170.871C535.527 171.598 534.559 171.961 533.34 171.961C532.105 171.961 531.125 171.598 530.398 170.871C529.672 170.137 529.309 169.141 529.309 167.883V166.793ZM531.219 167.941C531.219 168.707 531.402 169.301 531.77 169.723C532.145 170.137 532.668 170.344 533.34 170.344C533.996 170.344 534.504 170.137 534.863 169.723C535.23 169.309 535.418 168.727 535.426 167.977V166.793C535.426 166.035 535.238 165.449 534.863 165.035C534.496 164.613 533.98 164.402 533.316 164.402C532.66 164.402 532.145 164.613 531.77 165.035C531.402 165.449 531.219 166.043 531.219 166.816V167.941ZM527.422 180H525.031L518.082 166.711V180H515.914V162.938H518.293L525.277 176.262V162.938H527.422V180ZM551.293 180H540.113V178.441L546.02 171.879C546.895 170.887 547.496 170.082 547.824 169.465C548.16 168.84 548.328 168.195 548.328 167.531C548.328 166.641 548.059 165.91 547.52 165.34C546.98 164.77 546.262 164.484 545.363 164.484C544.285 164.484 543.445 164.793 542.844 165.41C542.25 166.02 541.953 166.871 541.953 167.965H539.785C539.785 166.395 540.289 165.125 541.297 164.156C542.312 163.188 543.668 162.703 545.363 162.703C546.949 162.703 548.203 163.121 549.125 163.957C550.047 164.785 550.508 165.891 550.508 167.273C550.508 168.953 549.438 170.953 547.297 173.273L542.727 178.23H551.293V180Z" fill="black"/>
<rect x="378" width="221" height="59" rx="29.5" fill="white"/>
<path d="M439.402 32.5469H432.254L430.648 37H428.328L434.844 19.9375H436.812L443.34 37H441.031L439.402 32.5469ZM432.934 30.6953H438.734L435.828 22.7148L432.934 30.6953ZM456.008 30.8008C456.008 32.7305 455.566 34.2852 454.684 35.4648C453.801 36.6445 452.605 37.2344 451.098 37.2344C449.559 37.2344 448.348 36.7461 447.465 35.7695V41.875H445.297V24.3203H447.277L447.383 25.7266C448.266 24.6328 449.492 24.0859 451.062 24.0859C452.586 24.0859 453.789 24.6602 454.672 25.8086C455.562 26.957 456.008 28.5547 456.008 30.6016V30.8008ZM453.84 30.5547C453.84 29.125 453.535 27.9961 452.926 27.168C452.316 26.3398 451.48 25.9258 450.418 25.9258C449.105 25.9258 448.121 26.5078 447.465 27.6719V33.7305C448.113 34.8867 449.105 35.4648 450.441 35.4648C451.48 35.4648 452.305 35.0547 452.914 34.2344C453.531 33.4062 453.84 32.1797 453.84 30.5547ZM469.484 30.8008C469.484 32.7305 469.043 34.2852 468.16 35.4648C467.277 36.6445 466.082 37.2344 464.574 37.2344C463.035 37.2344 461.824 36.7461 460.941 35.7695V41.875H458.773V24.3203H460.754L460.859 25.7266C461.742 24.6328 462.969 24.0859 464.539 24.0859C466.062 24.0859 467.266 24.6602 468.148 25.8086C469.039 26.957 469.484 28.5547 469.484 30.6016V30.8008ZM467.316 30.5547C467.316 29.125 467.012 27.9961 466.402 27.168C465.793 26.3398 464.957 25.9258 463.895 25.9258C462.582 25.9258 461.598 26.5078 460.941 27.6719V33.7305C461.59 34.8867 462.582 35.4648 463.918 35.4648C464.957 35.4648 465.781 35.0547 466.391 34.2344C467.008 33.4062 467.316 32.1797 467.316 30.5547ZM481.449 19.9375L487.027 33.8594L492.605 19.9375H495.523V37H493.273V30.3555L493.484 23.1836L487.883 37H486.16L480.57 23.2188L480.793 30.3555V37H478.543V19.9375H481.449ZM498.582 30.543C498.582 29.3008 498.824 28.1836 499.309 27.1914C499.801 26.1992 500.48 25.4336 501.348 24.8945C502.223 24.3555 503.219 24.0859 504.336 24.0859C506.062 24.0859 507.457 24.6836 508.52 25.8789C509.59 27.0742 510.125 28.6641 510.125 30.6484V30.8008C510.125 32.0352 509.887 33.1445 509.41 34.1289C508.941 35.1055 508.266 35.8672 507.383 36.4141C506.508 36.9609 505.5 37.2344 504.359 37.2344C502.641 37.2344 501.246 36.6367 500.176 35.4414C499.113 34.2461 498.582 32.6641 498.582 30.6953V30.543ZM500.762 30.8008C500.762 32.207 501.086 33.3359 501.734 34.1875C502.391 35.0391 503.266 35.4648 504.359 35.4648C505.461 35.4648 506.336 35.0352 506.984 34.1758C507.633 33.3086 507.957 32.0977 507.957 30.543C507.957 29.1523 507.625 28.0273 506.961 27.168C506.305 26.3008 505.43 25.8672 504.336 25.8672C503.266 25.8672 502.402 26.293 501.746 27.1445C501.09 27.9961 500.762 29.2148 500.762 30.8008ZM512.316 30.5547C512.316 28.6094 512.777 27.0469 513.699 25.8672C514.621 24.6797 515.828 24.0859 517.32 24.0859C518.805 24.0859 519.98 24.5938 520.848 25.6094V19H523.016V37H521.023L520.918 35.6406C520.051 36.7031 518.844 37.2344 517.297 37.2344C515.828 37.2344 514.629 36.6328 513.699 35.4297C512.777 34.2266 512.316 32.6562 512.316 30.7188V30.5547ZM514.484 30.8008C514.484 32.2383 514.781 33.3633 515.375 34.1758C515.969 34.9883 516.789 35.3945 517.836 35.3945C519.211 35.3945 520.215 34.7773 520.848 33.543V27.7188C520.199 26.5234 519.203 25.9258 517.859 25.9258C516.797 25.9258 515.969 26.3359 515.375 27.1562C514.781 27.9766 514.484 29.1914 514.484 30.8008ZM534.219 35.7461C533.375 36.7383 532.137 37.2344 530.504 37.2344C529.152 37.2344 528.121 36.8438 527.41 36.0625C526.707 35.2734 526.352 34.1094 526.344 32.5703V24.3203H528.512V32.5117C528.512 34.4336 529.293 35.3945 530.855 35.3945C532.512 35.3945 533.613 34.7773 534.16 33.543V24.3203H536.328V37H534.266L534.219 35.7461ZM541.988 37H539.82V19H541.988V37ZM550.73 37.2344C549.012 37.2344 547.613 36.6719 546.535 35.5469C545.457 34.4141 544.918 32.9023 544.918 31.0117V30.6133C544.918 29.3555 545.156 28.2344 545.633 27.25C546.117 26.2578 546.789 25.4844 547.648 24.9297C548.516 24.3672 549.453 24.0859 550.461 24.0859C552.109 24.0859 553.391 24.6289 554.305 25.7148C555.219 26.8008 555.676 28.3555 555.676 30.3789V31.2812H547.086C547.117 32.5312 547.48 33.543 548.176 34.3164C548.879 35.082 549.77 35.4648 550.848 35.4648C551.613 35.4648 552.262 35.3086 552.793 34.9961C553.324 34.6836 553.789 34.2695 554.188 33.7539L555.512 34.7852C554.449 36.418 552.855 37.2344 550.73 37.2344ZM550.461 25.8672C549.586 25.8672 548.852 26.1875 548.258 26.8281C547.664 27.4609 547.297 28.3516 547.156 29.5H553.508V29.3359C553.445 28.2344 553.148 27.3828 552.617 26.7812C552.086 26.1719 551.367 25.8672 550.461 25.8672Z" fill="black"/>
<rect x="115" y="143" width="221" height="59" rx="29.5" fill="white"/>
<path d="M164.887 162.938L170.465 176.859L176.043 162.938H178.961V180H176.711V173.355L176.922 166.184L171.32 180H169.598L164.008 166.219L164.23 173.355V180H161.98V162.938H164.887ZM182.02 173.543C182.02 172.301 182.262 171.184 182.746 170.191C183.238 169.199 183.918 168.434 184.785 167.895C185.66 167.355 186.656 167.086 187.773 167.086C189.5 167.086 190.895 167.684 191.957 168.879C193.027 170.074 193.562 171.664 193.562 173.648V173.801C193.562 175.035 193.324 176.145 192.848 177.129C192.379 178.105 191.703 178.867 190.82 179.414C189.945 179.961 188.938 180.234 187.797 180.234C186.078 180.234 184.684 179.637 183.613 178.441C182.551 177.246 182.02 175.664 182.02 173.695V173.543ZM184.199 173.801C184.199 175.207 184.523 176.336 185.172 177.188C185.828 178.039 186.703 178.465 187.797 178.465C188.898 178.465 189.773 178.035 190.422 177.176C191.07 176.309 191.395 175.098 191.395 173.543C191.395 172.152 191.062 171.027 190.398 170.168C189.742 169.301 188.867 168.867 187.773 168.867C186.703 168.867 185.84 169.293 185.184 170.145C184.527 170.996 184.199 172.215 184.199 173.801ZM195.332 178.23L196.082 177.305C196.926 176.211 197.406 174.57 197.523 172.383L197.723 167.32H205.891V178.23H207.52V183.727H205.352V180H196.504V183.727H194.336L194.348 178.23H195.332ZM197.898 178.23H203.723V169.324H199.82L199.691 172.348C199.559 174.871 198.961 176.832 197.898 178.23ZM214.07 176.824L217.023 167.32H219.344L214.246 181.957C213.457 184.066 212.203 185.121 210.484 185.121L210.074 185.086L209.266 184.934V183.176L209.852 183.223C210.586 183.223 211.156 183.074 211.562 182.777C211.977 182.48 212.316 181.938 212.582 181.148L213.062 179.859L208.539 167.32H210.906L214.07 176.824ZM231.191 167.32V180H229.012V169.113H224.699L224.441 173.859C224.301 176.039 223.934 177.598 223.34 178.535C222.754 179.473 221.82 179.961 220.539 180H219.672V178.09L220.293 178.043C220.996 177.965 221.5 177.559 221.805 176.824C222.109 176.09 222.305 174.73 222.391 172.746L222.625 167.32H231.191ZM237.039 171.691H240.332C241.77 171.707 242.906 172.082 243.742 172.816C244.578 173.551 244.996 174.547 244.996 175.805C244.996 177.07 244.566 178.086 243.707 178.852C242.848 179.617 241.691 180 240.238 180H234.871V167.32H237.039V171.691ZM237.039 173.461V178.23H240.262C241.074 178.23 241.703 178.023 242.148 177.609C242.594 177.188 242.816 176.613 242.816 175.887C242.816 175.184 242.598 174.609 242.16 174.164C241.73 173.711 241.125 173.477 240.344 173.461H237.039ZM274.938 175.172H267.73V173.508H274.938V175.172ZM267.309 166.793C267.309 165.582 267.672 164.605 268.398 163.863C269.125 163.121 270.098 162.75 271.316 162.75C272.535 162.75 273.508 163.117 274.234 163.852C274.969 164.578 275.336 165.578 275.336 166.852V167.941C275.336 169.168 274.973 170.145 274.246 170.871C273.527 171.598 272.559 171.961 271.34 171.961C270.105 171.961 269.125 171.598 268.398 170.871C267.672 170.137 267.309 169.141 267.309 167.883V166.793ZM269.219 167.941C269.219 168.707 269.402 169.301 269.77 169.723C270.145 170.137 270.668 170.344 271.34 170.344C271.996 170.344 272.504 170.137 272.863 169.723C273.23 169.309 273.418 168.727 273.426 167.977V166.793C273.426 166.035 273.238 165.449 272.863 165.035C272.496 164.613 271.98 164.402 271.316 164.402C270.66 164.402 270.145 164.613 269.77 165.035C269.402 165.449 269.219 166.043 269.219 166.816V167.941ZM265.422 180H263.031L256.082 166.711V180H253.914V162.938H256.293L263.277 176.262V162.938H265.422V180ZM285.238 180H283.059V165.551L278.688 167.156V165.188L284.898 162.855H285.238V180Z" fill="black"/>
<rect x="639" y="143" width="221" height="59" rx="29.5" fill="white"/>
<path d="M688.887 162.938L694.465 176.859L700.043 162.938H702.961V180H700.711V173.355L700.922 166.184L695.32 180H693.598L688.008 166.219L688.23 173.355V180H685.98V162.938H688.887ZM706.02 173.543C706.02 172.301 706.262 171.184 706.746 170.191C707.238 169.199 707.918 168.434 708.785 167.895C709.66 167.355 710.656 167.086 711.773 167.086C713.5 167.086 714.895 167.684 715.957 168.879C717.027 170.074 717.562 171.664 717.562 173.648V173.801C717.562 175.035 717.324 176.145 716.848 177.129C716.379 178.105 715.703 178.867 714.82 179.414C713.945 179.961 712.938 180.234 711.797 180.234C710.078 180.234 708.684 179.637 707.613 178.441C706.551 177.246 706.02 175.664 706.02 173.695V173.543ZM708.199 173.801C708.199 175.207 708.523 176.336 709.172 177.188C709.828 178.039 710.703 178.465 711.797 178.465C712.898 178.465 713.773 178.035 714.422 177.176C715.07 176.309 715.395 175.098 715.395 173.543C715.395 172.152 715.062 171.027 714.398 170.168C713.742 169.301 712.867 168.867 711.773 168.867C710.703 168.867 709.84 169.293 709.184 170.145C708.527 170.996 708.199 172.215 708.199 173.801ZM719.332 178.23L720.082 177.305C720.926 176.211 721.406 174.57 721.523 172.383L721.723 167.32H729.891V178.23H731.52V183.727H729.352V180H720.504V183.727H718.336L718.348 178.23H719.332ZM721.898 178.23H727.723V169.324H723.82L723.691 172.348C723.559 174.871 722.961 176.832 721.898 178.23ZM738.07 176.824L741.023 167.32H743.344L738.246 181.957C737.457 184.066 736.203 185.121 734.484 185.121L734.074 185.086L733.266 184.934V183.176L733.852 183.223C734.586 183.223 735.156 183.074 735.562 182.777C735.977 182.48 736.316 181.938 736.582 181.148L737.062 179.859L732.539 167.32H734.906L738.07 176.824ZM755.191 167.32V180H753.012V169.113H748.699L748.441 173.859C748.301 176.039 747.934 177.598 747.34 178.535C746.754 179.473 745.82 179.961 744.539 180H743.672V178.09L744.293 178.043C744.996 177.965 745.5 177.559 745.805 176.824C746.109 176.09 746.305 174.73 746.391 172.746L746.625 167.32H755.191ZM761.039 171.691H764.332C765.77 171.707 766.906 172.082 767.742 172.816C768.578 173.551 768.996 174.547 768.996 175.805C768.996 177.07 768.566 178.086 767.707 178.852C766.848 179.617 765.691 180 764.238 180H758.871V167.32H761.039V171.691ZM761.039 173.461V178.23H764.262C765.074 178.23 765.703 178.023 766.148 177.609C766.594 177.188 766.816 176.613 766.816 175.887C766.816 175.184 766.598 174.609 766.16 174.164C765.73 173.711 765.125 173.477 764.344 173.461H761.039ZM798.938 175.172H791.73V173.508H798.938V175.172ZM791.309 166.793C791.309 165.582 791.672 164.605 792.398 163.863C793.125 163.121 794.098 162.75 795.316 162.75C796.535 162.75 797.508 163.117 798.234 163.852C798.969 164.578 799.336 165.578 799.336 166.852V167.941C799.336 169.168 798.973 170.145 798.246 170.871C797.527 171.598 796.559 171.961 795.34 171.961C794.105 171.961 793.125 171.598 792.398 170.871C791.672 170.137 791.309 169.141 791.309 167.883V166.793ZM793.219 167.941C793.219 168.707 793.402 169.301 793.77 169.723C794.145 170.137 794.668 170.344 795.34 170.344C795.996 170.344 796.504 170.137 796.863 169.723C797.23 169.309 797.418 168.727 797.426 167.977V166.793C797.426 166.035 797.238 165.449 796.863 165.035C796.496 164.613 795.98 164.402 795.316 164.402C794.66 164.402 794.145 164.613 793.77 165.035C793.402 165.449 793.219 166.043 793.219 166.816V167.941ZM789.422 180H787.031L780.082 166.711V180H777.914V162.938H780.293L787.277 176.262V162.938H789.422V180ZM805.266 170.414H806.895C807.918 170.398 808.723 170.129 809.309 169.605C809.895 169.082 810.188 168.375 810.188 167.484C810.188 165.484 809.191 164.484 807.199 164.484C806.262 164.484 805.512 164.754 804.949 165.293C804.395 165.824 804.117 166.531 804.117 167.414H801.949C801.949 166.062 802.441 164.941 803.426 164.051C804.418 163.152 805.676 162.703 807.199 162.703C808.809 162.703 810.07 163.129 810.984 163.98C811.898 164.832 812.355 166.016 812.355 167.531C812.355 168.273 812.113 168.992 811.629 169.688C811.152 170.383 810.5 170.902 809.672 171.246C810.609 171.543 811.332 172.035 811.84 172.723C812.355 173.41 812.613 174.25 812.613 175.242C812.613 176.773 812.113 177.988 811.113 178.887C810.113 179.785 808.812 180.234 807.211 180.234C805.609 180.234 804.305 179.801 803.297 178.934C802.297 178.066 801.797 176.922 801.797 175.5H803.977C803.977 176.398 804.27 177.117 804.855 177.656C805.441 178.195 806.227 178.465 807.211 178.465C808.258 178.465 809.059 178.191 809.613 177.645C810.168 177.098 810.445 176.312 810.445 175.289C810.445 174.297 810.141 173.535 809.531 173.004C808.922 172.473 808.043 172.199 806.895 172.184H805.266V170.414Z" fill="black"/>
<path d="M488.354 209.646C488.158 209.451 487.842 209.451 487.646 209.646L484.464 212.828C484.269 213.024 484.269 213.34 484.464 213.536C484.66 213.731 484.976 213.731 485.172 213.536L488 210.707L490.828 213.536C491.024 213.731 491.34 213.731 491.536 213.536C491.731 213.34 491.731 213.024 491.536 212.828L488.354 209.646ZM488.5 268L488.5 210L487.5 210L487.5 268L488.5 268Z" fill="#FF0000"/>
<path d="M488.354 71.6464C488.158 71.4512 487.842 71.4512 487.646 71.6464L484.464 74.8284C484.269 75.0237 484.269 75.3403 484.464 75.5355C484.66 75.7308 484.976 75.7308 485.172 75.5355L488 72.7071L490.828 75.5355C491.024 75.7308 491.34 75.7308 491.536 75.5355C491.731 75.3403 491.731 75.0237 491.536 74.8284L488.354 71.6464ZM488.5 130L488.5 72L487.5 72L487.5 130L488.5 130Z" fill="#FF0000"/>
<path d="M499.735 71.5757C499.501 71.7218 499.43 72.0302 499.576 72.2645L501.956 76.0833C502.102 76.3176 502.411 76.3892 502.645 76.2431C502.879 76.097 502.951 75.7886 502.805 75.5543L500.689 72.1598L504.083 70.0438C504.318 69.8977 504.389 69.5893 504.243 69.355C504.097 69.1206 503.789 69.0491 503.554 69.1952L499.735 71.5757ZM750.113 129.513L500.113 71.5129L499.887 72.4871L749.887 130.487L750.113 129.513Z" fill="#FF0000"/>
<path d="M476.424 72.2649C476.57 72.0307 476.499 71.7222 476.265 71.5759L472.448 69.192C472.214 69.0458 471.906 69.117 471.759 69.3512C471.613 69.5855 471.684 69.8939 471.918 70.0402L475.311 72.1592L473.192 75.5518C473.046 75.786 473.117 76.0945 473.351 76.2408C473.585 76.3871 473.894 76.3158 474.04 76.0816L476.424 72.2649ZM225.113 130.487L476.113 72.4872L475.887 71.5128L224.887 129.513L225.113 130.487Z" fill="#FF0000"/>
<path d="M207.5 209.982C207.49 209.706 207.258 209.49 206.982 209.5L202.485 209.661C202.209 209.671 201.993 209.902 202.003 210.178C202.013 210.454 202.245 210.67 202.521 210.66L206.518 210.518L206.661 214.515C206.671 214.791 206.902 215.007 207.178 214.997C207.454 214.987 207.67 214.755 207.66 214.479L207.5 209.982ZM153.366 268.341L207.366 210.341L206.634 209.659L152.634 267.659L153.366 268.341Z" fill="#FF0000"/>
<path d="M476.392 210.099C476.54 209.866 476.472 209.557 476.239 209.409L472.445 206.989C472.212 206.841 471.903 206.909 471.755 207.142C471.606 207.375 471.675 207.684 471.907 207.832L475.28 209.983L473.129 213.356C472.981 213.589 473.049 213.898 473.282 214.046C473.515 214.195 473.824 214.126 473.972 213.893L476.392 210.099ZM213.108 268.488L476.078 210.319L475.862 209.342L212.892 267.512L213.108 268.488Z" fill="#FF0000"/>
<path d="M499.729 209.58C499.497 209.729 499.43 210.039 499.58 210.271L502.017 214.054C502.166 214.286 502.476 214.353 502.708 214.203C502.94 214.054 503.007 213.744 502.857 213.512L500.691 210.15L504.054 207.983C504.286 207.834 504.353 207.524 504.203 207.292C504.054 207.06 503.744 206.993 503.512 207.143L499.729 209.58ZM768.106 267.511L500.106 209.511L499.894 210.489L767.894 268.489L768.106 267.511Z" fill="#FF0000"/>
</svg>
